<?xml version="1.0" encoding="utf-8"?>
<!-- Generator: Adobe Illustrator 27.8.1, SVG Export Plug-In . SVG Version: 6.00 Build 0)  -->
<svg version="1.1" id="레이어_1" xmlns="http://www.w3.org/2000/svg" xmlns:xlink="http://www.w3.org/1999/xlink" x="0px"
	 y="0px" viewBox="0 0 60 60" style="enable-background:new 0 0 60 60;" xml:space="preserve">
<style type="text/css">
	.st0{display:none;fill:none;stroke:#31A8FF;stroke-width:3;stroke-miterlimit:10;}
	.st1{fill:none;stroke:#EEEEEE;stroke-miterlimit:10;}
	.st2{fill:#FF49FD;}
</style>
<circle id="backup" class="st0" cx="30" cy="30" r="27.6"/>
<!-- <circle class="st1" cx="30" cy="30" r="27.6"/> -->
<g>
	<path class="st2" d="M30,0.9v3c14.4,0,26.1,11.7,26.1,26.1c0,8.1-3.7,15.3-9.4,20.1c-4.5,3.8-10.4,6.1-16.7,6.1
		C15.6,56.1,3.9,44.4,3.9,30c0-9.3,4.9-17.5,12.2-22.1l-1.8-2.4C6.2,10.6,0.9,19.7,0.9,30c0,16.1,13.1,29.1,29.1,29.1
		c7,0,13.5-2.5,18.5-6.6C55,47.1,59.1,39,59.1,30C59.1,13.9,46.1,0.9,30,0.9z"/>
</g>
<g id="Outlined_Mnemonics_Logos">
	<g id="Xd">
		<path class="st2" d="M31.2,20.5l-6,9.9l6.4,10.5c0,0.1,0.1,0.2,0,0.2c0,0.1-0.1,0-0.2,0h-4.6c-0.3,0-0.5,0-0.7-0.2
			c-0.4-0.8-0.9-1.7-1.3-2.5s-0.9-1.7-1.4-2.5c-0.5-0.9-1-1.7-1.4-2.6l0,0c-0.4,0.9-0.9,1.7-1.3,2.6c-0.5,0.9-0.9,1.7-1.4,2.6
			c-0.5,0.8-0.9,1.7-1.4,2.5c-0.1,0.2-0.2,0.2-0.5,0.2H13c-0.1,0-0.1,0-0.1-0.1s0-0.2,0-0.2l6.2-10.2L13,20.4
			c-0.1-0.1-0.1-0.2,0-0.2c0-0.1,0.1-0.1,0.2-0.1h4.5c0.1,0,0.2,0,0.3,0c0.1,0,0.1,0.1,0.2,0.2c0.4,0.9,0.8,1.7,1.3,2.6
			s0.9,1.7,1.4,2.5s0.9,1.7,1.3,2.5l0,0c0.4-0.9,0.9-1.7,1.3-2.6c0.4-0.8,0.9-1.7,1.4-2.5s0.9-1.7,1.3-2.5c0-0.1,0.1-0.2,0.1-0.2
			c0.1,0,0.2-0.1,0.3,0h4.2c0.1,0,0.2,0,0.2,0.1C31.3,20.4,31.3,20.5,31.2,20.5L31.2,20.5z"/>
		<path class="st2" d="M40.5,41.6c-1.5,0-3-0.3-4.3-0.9c-1.3-0.6-2.3-1.5-3-2.7s-1.1-2.7-1.1-4.6c0-1.5,0.4-2.9,1.1-4.2
			c0.8-1.3,1.9-2.4,3.2-3.1c1.4-0.8,3.1-1.2,5.1-1.2c0.1,0,0.2,0,0.4,0s0.4,0,0.6,0v-6.3c0-0.1,0.1-0.2,0.2-0.2h4.1
			c0.1,0,0.2,0.1,0.2,0.1l0,0v19c0,0.4,0,0.8,0,1.2s0.1,0.8,0.1,1.2c0,0.1-0.1,0.3-0.2,0.3c-1,0.4-2.1,0.8-3.3,1
			C42.5,41.5,41.5,41.6,40.5,41.6z M42.4,37.6v-8.8c-0.2,0-0.4-0.1-0.5-0.1c-0.2,0-0.4,0-0.7,0c-0.8,0-1.6,0.2-2.3,0.5
			s-1.3,0.8-1.7,1.5c-0.4,0.6-0.7,1.5-0.7,2.5c0,0.7,0.1,1.4,0.3,2.1c0.2,0.5,0.5,1,0.9,1.4s0.8,0.6,1.4,0.8
			c0.5,0.2,1.1,0.3,1.7,0.3c0.3,0,0.6,0,0.8,0C42,37.7,42.2,37.7,42.4,37.6z"/>
	</g>
</g>
</svg>
