<?xml version="1.0" encoding="utf-8"?>
<!-- Generator: Adobe Illustrator 27.8.1, SVG Export Plug-In . SVG Version: 6.00 Build 0)  -->
<svg version="1.1" id="레이어_1" xmlns="http://www.w3.org/2000/svg" xmlns:xlink="http://www.w3.org/1999/xlink" x="0px"
	 y="0px" viewBox="0 0 60 60" style="enable-background:new 0 0 60 60;" xml:space="preserve">
<style type="text/css">
	.st0{display:none;fill:none;stroke:#31A8FF;stroke-width:3;stroke-miterlimit:10;}
	.st1{fill:none;stroke:#EEEEEE;stroke-miterlimit:10;}
	.st2{fill:#F7B52C;}
	.st3{fill-rule:evenodd;clip-rule:evenodd;fill:#F7B52C;}
</style>
<circle id="backup" class="st0" cx="30" cy="30" r="27.6"/>
<!-- <circle class="st1" cx="30" cy="30" r="27.6"/> -->
<g>
	<path class="st2" d="M30,0.9v3c14.4,0,26.1,11.7,26.1,26.1h3C59.1,13.9,46.1,0.9,30,0.9z"/>
</g>
<g>
	<polygon class="st3" points="35.9,22.7 42.4,22.7 43,18.3 31.6,18.3 31.6,22.6 31.6,22.6 31.6,27.6 31.6,27.6 31.6,32 37.5,32 
		37.2,37.2 31.8,37.3 31.7,41.5 41.7,41.5 41.9,37.1 41.9,37.1 42.1,32 42.2,32 42.5,27.6 36,27.6 	"/>
	<polygon class="st3" points="22.8,18.3 22.8,36.9 17,36.2 17.4,40.4 23.4,41.1 27.1,41.7 27.2,37.6 27.2,37.5 27.2,37.5 27.2,18.3 
			"/>
</g>
</svg>
