<?xml version="1.0" encoding="utf-8"?>
<!-- Generator: Adobe Illustrator 27.8.1, SVG Export Plug-In . SVG Version: 6.00 Build 0)  -->
<svg version="1.1" id="레이어_1" xmlns="http://www.w3.org/2000/svg" xmlns:xlink="http://www.w3.org/1999/xlink" x="0px"
	 y="0px" viewBox="0 0 60 60" style="enable-background:new 0 0 60 60;" xml:space="preserve">
<style type="text/css">
	.st0{display:none;fill:none;stroke:#31A8FF;stroke-width:3;stroke-miterlimit:10;}
	.st1{fill:none;stroke:#EEEEEE;stroke-miterlimit:10;}
	.st2{fill:#FF9A00;}
</style>
<circle id="backup" class="st0" cx="30" cy="30" r="27.6"/>
<!-- <circle class="st1" cx="30" cy="30" r="27.6"/> -->
<g>
	<path class="st2" d="M30,0.9v3c14.4,0,26.1,11.7,26.1,26.1c0,8.1-3.7,15.3-9.4,20.1c-4.5,3.8-10.4,6.1-16.7,6.1
		C15.6,56.1,3.9,44.4,3.9,30c0-9.3,4.9-17.5,12.2-22.1l-1.8-2.4C6.2,10.6,0.9,19.7,0.9,30c0,16.1,13.1,29.1,29.1,29.1
		c7,0,13.5-2.5,18.5-6.6C55,47.1,59.1,39,59.1,30C59.1,13.9,46.1,0.9,30,0.9z"/>
</g>
<g id="Illustrator" transform="translate(2303 308)">
	<path id="_30" class="st2" d="M-2272.9-271.7h-7.7l-1.6,5.2c0,0.2-0.2,0.3-0.4,0.3h-3.9c-0.2,0-0.3-0.1-0.2-0.4l6.7-19.3
		c0.1-0.2,0.1-0.4,0.2-0.7c0.1-0.4,0.1-0.8,0.1-1.1c0-0.1,0.1-0.2,0.2-0.2c0,0,0,0,0.1,0h5.3c0.2,0,0.3,0.1,0.3,0.2l7.6,21.2
		c0.1,0.2,0,0.3-0.2,0.3h-4.4c-0.2,0-0.3-0.1-0.3-0.2L-2272.9-271.7z M-2279.5-275.3h5.7c-0.1-0.4-0.6-1.5-0.8-2
		c-0.2-0.6-0.4-1-0.6-1.6c-0.2-0.6-0.4-1.3-0.6-1.9c-0.2-0.6-0.4-1.3-0.6-1.8c-0.2-0.6-0.3-1.1-0.5-1.6h0c-0.2,0.9-0.4,1.8-0.7,2.7
		c-0.3,1-0.6,2-1,3.1C-2278.9-277.5-2279.2-276.2-2279.5-275.3L-2279.5-275.3z"/>
	<path id="_31" class="st2" d="M-2261.8-284.5c-0.7,0-1.4-0.2-1.8-0.7c-0.5-0.5-0.7-1.2-0.7-1.9c0-0.7,0.3-1.4,0.8-1.9
		c0.5-0.5,1.2-0.7,1.9-0.7c0.7,0,1.4,0.2,1.9,0.7c0.5,0.5,0.7,1.2,0.7,1.9c0,0.7-0.2,1.4-0.7,1.9
		C-2260.4-284.7-2261.1-284.5-2261.8-284.5z M-2264-266.6v-15.3c0-0.2,0.1-0.3,0.3-0.3h3.8c0.2,0,0.3,0.1,0.3,0.3v15.3
		c0,0.2-0.1,0.3-0.3,0.3h-3.8C-2263.9-266.3-2264-266.4-2264-266.6z"/>
</g>
</svg>
