<?xml version="1.0" encoding="utf-8"?>
<!-- Generator: Adobe Illustrator 27.8.1, SVG Export Plug-In . SVG Version: 6.00 Build 0)  -->
<svg version="1.1" id="레이어_1" xmlns="http://www.w3.org/2000/svg" xmlns:xlink="http://www.w3.org/1999/xlink" x="0px"
	 y="0px" viewBox="0 0 60 60" style="enable-background:new 0 0 60 60;" xml:space="preserve">
<style type="text/css">
	.st0{display:none;fill:none;stroke:#31A8FF;stroke-width:3;stroke-miterlimit:10;}
	.st1{fill:none;stroke:#EEEEEE;stroke-miterlimit:10;}
	.st2{fill:#9999FF;}
</style>
<circle id="backup" class="st0" cx="30" cy="30" r="27.6"/>
<!-- <circle class="st1" cx="30" cy="30" r="27.6"/> -->
<g>
	<path class="st2" d="M57.7,21C53.9,9.3,43,0.9,30,0.9v3c11.6,0,21.4,7.6,24.8,18c0.8,2.5,1.3,5.3,1.3,8.1c0,8.1-3.7,15.3-9.4,20.1
		c-4.5,3.8-10.4,6.1-16.7,6.1C18.4,56.1,8.6,48.5,5.2,38.1L2.3,39C6.1,50.7,17.1,59.1,30,59.1c7,0,13.5-2.5,18.5-6.6
		C55,47.1,59.1,39,59.1,30C59.1,26.9,58.6,23.8,57.7,21z"/>
</g>
<g>
	<path class="st2" d="M16.2,40.3V19.8c0-0.1,0.1-0.2,0.2-0.2c0.3,0,0.7,0,1.1,0c0.5,0,1,0,1.5,0c0.5,0,1.1,0,1.7,0
		c0.6,0,1.2,0,1.8,0c1.6,0,3,0.2,4.1,0.6c1,0.3,1.9,0.9,2.7,1.6c0.6,0.6,1.1,1.4,1.5,2.3c0.3,0.8,0.5,1.7,0.5,2.6
		c0,1.7-0.4,3.1-1.2,4.3c-0.8,1.1-1.9,2-3.2,2.4c-1.4,0.5-2.9,0.7-4.5,0.7c-0.5,0-0.8,0-1,0c-0.2,0-0.5,0-0.9,0v6.4
		c0,0.1-0.1,0.3-0.2,0.3h-3.9C16.3,40.6,16.2,40.5,16.2,40.3L16.2,40.3z M20.6,23.4v6.7c0.3,0,0.5,0,0.8,0h1.1
		c0.8,0,1.6-0.1,2.3-0.4c0.6-0.2,1.2-0.6,1.6-1.1c0.4-0.5,0.6-1.2,0.6-2.1c0-0.6-0.1-1.2-0.5-1.8c-0.3-0.5-0.8-0.9-1.4-1.1
		c-0.7-0.3-1.5-0.4-2.4-0.4c-0.5,0-1,0-1.4,0C21,23.4,20.7,23.4,20.6,23.4L20.6,23.4z"/>
	<path class="st2" d="M34.1,24.6h3.5c0.2,0,0.4,0.1,0.4,0.3c0.1,0.2,0.1,0.3,0.1,0.5c0,0.2,0.1,0.4,0.1,0.6c0,0.2,0,0.5,0,0.7
		c0.6-0.7,1.3-1.3,2.1-1.7c0.9-0.5,2-0.8,3-0.8c0.1,0,0.3,0.1,0.3,0.2v4c0,0.2-0.1,0.2-0.3,0.2c-0.7,0-1.5,0-2.2,0.2
		c-0.6,0.1-1.1,0.3-1.7,0.5c-0.4,0.2-0.7,0.4-1,0.7v10.2c0,0.2-0.1,0.3-0.3,0.3h-3.9c-0.2,0-0.3-0.1-0.3-0.2V29.2c0-0.5,0-1,0-1.5
		c0-0.5,0-1,0-1.6c0-0.5,0-0.9-0.1-1.4C33.9,24.7,34,24.6,34.1,24.6C34.1,24.5,34.1,24.5,34.1,24.6L34.1,24.6z"/>
</g>
</svg>
