<?xml version="1.0" encoding="utf-8"?>
<!-- Generator: Adobe Illustrator 27.8.1, SVG Export Plug-In . SVG Version: 6.00 Build 0)  -->
<svg version="1.1" id="레이어_1" xmlns="http://www.w3.org/2000/svg" xmlns:xlink="http://www.w3.org/1999/xlink" x="0px"
	 y="0px" viewBox="0 0 60 60" style="enable-background:new 0 0 60 60;" xml:space="preserve">
<style type="text/css">
	.st0{display:none;fill:none;stroke:#31A8FF;stroke-width:3;stroke-miterlimit:10;}
	.st1{fill:none;stroke:#EEEEEE;stroke-miterlimit:10;}
	.st2{fill:#036EB7;}
	.st3{fill-rule:evenodd;clip-rule:evenodd;fill:#036EB7;}
</style>
<circle id="backup" class="st0" cx="30" cy="30" r="27.6"/>
<!-- <circle class="st1" cx="30" cy="30" r="27.6"/> -->
<g>
	<path class="st2" d="M30,0.9v3c14.4,0,26.1,11.7,26.1,26.1c0,8.1-3.7,15.3-9.4,20.1c-4.5,3.8-10.4,6.1-16.7,6.1
		C15.6,56.1,3.9,44.4,3.9,30c0-9.3,4.9-17.5,12.2-22.1l-1.8-2.4C6.2,10.6,0.9,19.7,0.9,30C0.9,46.1,14,59.1,30,59.1
		c7,0,13.5-2.5,18.5-6.6C55,47.1,59.1,39,59.1,30C59.1,13.9,46.1,0.9,30,0.9z"/>
</g>
<polygon class="st3" points="41.1,25.8 40.7,30.1 39.7,39.8 29.4,41.8 29.4,41.8 20.3,39.9 19.7,35.3 19.7,35.3 19.4,33.1 
	24.3,33.1 24.9,36.4 29.4,37.4 29.4,37.4 35.7,36.2 36.3,30.1 19.3,30 18.7,25.8 18.7,25.8 18.7,25.8 30.4,22.6 18.4,22.6 
	17.9,18.2 42.1,18.2 41.5,23.4 34.2,25.8 "/>
</svg>
