<?xml version="1.0" encoding="UTF-8"?>
<svg id="_레이어_1" data-name="레이어_1" xmlns="http://www.w3.org/2000/svg" version="1.1" viewBox="0 0 60 60">
  <!-- Generator: Adobe Illustrator 29.4.0, SVG Export Plug-In . SVG Version: 2.1.0 Build 152)  -->
  <defs>
    <style>
      .st0 {
        stroke: #eee;
      }

      .st0, .st1 {
        fill: none;
        stroke-miterlimit: 10;
      }

      .st1 {
        display: none;
        stroke: #31a8ff;
        stroke-width: 3px;
      }

      .st2 {
        fill: #61dafb;
      }
    </style>
  </defs>
  <circle id="backup" class="st1" cx="30" cy="30" r="27.6"/>
  <circle class="st0" cx="30" cy="30" r="27.6"/>
  <path class="st2" d="M30,.9v3c14.4,0,26.1,11.7,26.1,26.1h3C59.1,13.9,46.1.9,30,.9Z"/>
  <g>
    <path class="st2" d="M45.1,30c0-2-2.5-3.9-6.3-5.1.9-3.9.5-7-1.2-8-.4-.2-.9-.3-1.4-.3v1.4c.3,0,.5,0,.7.2.8.5,1.2,2.3.9,4.6,0,.6-.2,1.2-.3,1.8-1.2-.3-2.5-.5-3.9-.7-.8-1.1-1.7-2.2-2.6-3.1,2-1.9,3.9-2.9,5.2-2.9v-1.4c-1.7,0-3.9,1.2-6.1,3.3-2.2-2.1-4.4-3.3-6.1-3.3v1.4c1.3,0,3.2,1,5.2,2.9-.9.9-1.7,1.9-2.5,3.1-1.4.1-2.7.4-3.9.7-.1-.6-.2-1.2-.3-1.8-.3-2.3,0-4.2.9-4.7.2-.1.4-.2.7-.2v-1.4c-.5,0-1,.1-1.4.3-1.7,1-2.1,4.1-1.2,8-3.8,1.2-6.3,3.1-6.3,5.1s2.5,3.9,6.3,5.1c-.9,3.9-.5,7,1.2,8,.4.2.9.3,1.4.3,1.7,0,3.9-1.2,6.1-3.3,2.2,2.1,4.4,3.3,6.1,3.3s1-.1,1.4-.3c1.7-1,2.1-4.1,1.2-8,3.8-1.2,6.3-3.1,6.3-5.1h0ZM37.1,25.9c-.2.8-.5,1.6-.8,2.4-.3-.5-.5-1-.8-1.5-.3-.5-.6-1-.9-1.4.9.1,1.7.3,2.5.5h0ZM34.3,32.4c-.5.8-1,1.6-1.5,2.3-.9,0-1.8.1-2.8.1s-1.9,0-2.8-.1c-.5-.7-1-1.5-1.5-2.3-.5-.8-.9-1.6-1.3-2.4.4-.8.8-1.6,1.3-2.4.5-.8,1-1.6,1.5-2.3.9,0,1.8-.1,2.8-.1s1.9,0,2.8.1c.5.7,1,1.5,1.5,2.3.5.8.9,1.6,1.3,2.4-.4.8-.8,1.6-1.3,2.4h0ZM36.2,31.6c.3.8.6,1.6.8,2.4-.8.2-1.7.4-2.5.5.3-.5.6-1,.9-1.5.3-.5.5-1,.8-1.5h0ZM30,38.2c-.6-.6-1.1-1.2-1.7-2,.6,0,1.1,0,1.7,0s1.1,0,1.7,0c-.6.7-1.1,1.4-1.7,2ZM25.4,34.6c-.9-.1-1.7-.3-2.5-.5.2-.8.5-1.6.8-2.4.3.5.5,1,.8,1.5s.6,1,.9,1.4ZM30,21.8c.6.6,1.1,1.2,1.7,2-.6,0-1.1,0-1.7,0s-1.1,0-1.7,0c.6-.7,1.1-1.4,1.7-2ZM25.4,25.4c-.3.5-.6,1-.9,1.5-.3.5-.5,1-.8,1.5-.3-.8-.6-1.6-.8-2.4.8-.2,1.7-.4,2.5-.5h0ZM19.9,33.1c-2.2-.9-3.6-2.1-3.6-3.1s1.4-2.2,3.6-3.1c.5-.2,1.1-.4,1.7-.6.3,1.2.8,2.5,1.4,3.7-.6,1.3-1,2.5-1.4,3.7-.6-.2-1.2-.4-1.7-.6h0ZM23.2,41.9c-.8-.5-1.2-2.3-.9-4.6,0-.6.2-1.2.3-1.8,1.2.3,2.5.5,3.9.7.8,1.1,1.7,2.2,2.6,3.1-2,1.9-3.9,2.9-5.2,2.9-.3,0-.5,0-.7-.2h0ZM37.7,37.2c.3,2.3,0,4.2-.9,4.7-.2.1-.4.2-.7.2-1.3,0-3.2-1-5.2-2.9.9-.9,1.7-1.9,2.5-3.1,1.4-.1,2.7-.4,3.9-.7.1.6.3,1.2.3,1.8ZM40.1,33.1c-.5.2-1.1.4-1.7.6-.3-1.2-.8-2.5-1.4-3.7.6-1.3,1-2.5,1.4-3.7.6.2,1.2.4,1.7.6,2.2.9,3.6,2.1,3.6,3.1,0,1-1.4,2.2-3.6,3.1h0Z"/>
    <circle class="st2" cx="30" cy="30" r="2.8"/>
  </g>
</svg>