<?xml version="1.0" encoding="utf-8"?>
<!-- Generator: Adobe Illustrator 27.8.1, SVG Export Plug-In . SVG Version: 6.00 Build 0)  -->
<svg version="1.1" id="레이어_1" xmlns="http://www.w3.org/2000/svg" xmlns:xlink="http://www.w3.org/1999/xlink" x="0px"
	 y="0px" viewBox="0 0 60 60" style="enable-background:new 0 0 60 60;" xml:space="preserve">
<style type="text/css">
	.st0{display:none;fill:none;stroke:var;stroke-width:3;stroke-miterlimit:10;}
	.st1{fill:none;stroke:#EEEEEE;stroke-miterlimit:10;}
	.st2{fill:#9999FF;}
</style>
<circle id="backup" class="st0" cx="30" cy="30" r="27.6"/>
<!-- <circle class="st1" cx="30" cy="30" r="27.6"/> -->
<g>
	<path class="st2" d="M25.5,35.3h-7.4L16.6,40c0,0.1-0.1,0.2-0.1,0.2c-0.1,0.1-0.2,0.1-0.2,0.1h-3.8c-0.2,0-0.3-0.1-0.2-0.4
		l6.4-18.5c0.1-0.2,0.1-0.4,0.2-0.6c0.1-0.4,0.1-0.9,0.1-1.3v-0.1v-0.1c0,0,0,0,0.1,0h0.1h5.1c0.1,0,0.2,0.1,0.3,0.2L31.9,40
		c0.1,0.2,0,0.3-0.2,0.3h-4.2c-0.1,0-0.1,0-0.2-0.1c-0.1,0-0.1-0.1-0.1-0.2L25.5,35.3z M19.2,31.3h5.1c-0.1-0.4-0.3-0.9-0.5-1.4
		s-0.4-1.1-0.5-1.7c-0.2-0.6-0.4-1.2-0.6-1.8c-0.2-0.6-0.4-1.2-0.5-1.8C22,24,21.9,23.5,21.8,23l0,0c-0.2,0.9-0.4,1.7-0.7,2.6
		c-0.3,1-0.6,2-0.9,3C19.8,29.5,19.5,30.5,19.2,31.3z"/>
	<path class="st2" d="M43.7,33.5h-6.3c0.1,0.6,0.3,1.2,0.6,1.8c0.4,0.5,0.9,1,1.5,1.2c0.8,0.3,1.7,0.5,2.6,0.5
		c0.7,0,1.4-0.1,2.1-0.2c0.6-0.1,1.2-0.2,1.8-0.5c0.1-0.1,0.2,0,0.2,0.2v3.1c0,0.1,0,0.2,0,0.2c0,0.1-0.1,0.1-0.1,0.1
		c-0.6,0.3-1.3,0.5-2,0.6c-0.9,0.2-1.9,0.3-2.8,0.2c-1.5,0-2.8-0.2-3.8-0.7c-1-0.4-1.8-1.1-2.5-1.9c-0.6-0.8-1.1-1.7-1.4-2.6
		c-0.3-0.9-0.4-1.9-0.4-2.9c0-1.1,0.2-2.1,0.5-3.2c0.3-1,0.8-1.9,1.5-2.7c0.7-0.8,1.5-1.4,2.4-1.9s2.1-0.6,3.3-0.6
		c1.1,0,2.1,0.2,3.1,0.6c0.8,0.4,1.5,0.9,2.1,1.6c0.5,0.7,0.9,1.5,1.2,2.3s0.4,1.6,0.4,2.4c0,0.5,0,0.9,0,1.3c0,0.4-0.1,0.7-0.1,0.8
		s0,0.1-0.1,0.2c-0.1,0-0.1,0.1-0.2,0.1c-0.1,0-0.3,0-0.7,0c-0.3,0-0.7,0.1-1.2,0.1C44.7,33.5,44.2,33.5,43.7,33.5z M37.3,30.5h4.2
		c0.5,0,0.9,0,1.1,0c0.2,0,0.3-0.1,0.5-0.2v-0.2c0-0.3,0-0.5-0.1-0.7c-0.2-0.5-0.5-1-1-1.4c-0.5-0.3-1-0.5-1.6-0.5
		c-0.5,0-1.1,0.1-1.6,0.4s-0.9,0.7-1.1,1.2C37.6,29.6,37.4,30,37.3,30.5L37.3,30.5z"/>
</g>
<g>
	<path class="st2" d="M57.7,21C53.9,9.3,43,0.9,30,0.9v3c11.6,0,21.4,7.6,24.8,18c0.8,2.5,1.3,5.3,1.3,8.1c0,8.1-3.7,15.3-9.4,20.1
		c-4.5,3.8-10.4,6.1-16.7,6.1C18.4,56.1,8.6,48.5,5.2,38.1L2.3,39C6.1,50.7,17.1,59.1,30,59.1c7,0,13.5-2.5,18.5-6.6
		C55,47.1,59.1,39,59.1,30C59.1,26.9,58.6,23.8,57.7,21z"/>
</g>
</svg>
