<?xml version="1.0" encoding="utf-8"?>
<!-- Generator: Adobe Illustrator 28.1.0, SVG Export Plug-In . SVG Version: 6.00 Build 0)  -->
<svg version="1.1" id="레이어_1" xmlns="http://www.w3.org/2000/svg" xmlns:xlink="http://www.w3.org/1999/xlink" x="0px"
	 y="0px" viewBox="0 0 60 60" style="enable-background:new 0 0 60 60;" xml:space="preserve">
<style type="text/css">
	.st0{fill:#A6A6A6;}
	.st1{display:none;fill:none;stroke:#31A8FF;stroke-width:3;stroke-miterlimit:10;}
	.st2{fill:#0ACF83;}
	.st3{fill:#A259FF;}
	.st4{fill:#F24E1E;}
	.st5{fill:#FF7262;}
	.st6{fill:#1ABCFE;}
</style>
<g>
	<path class="st0" d="M30,0.9v3c14.4,0,26.1,11.7,26.1,26.1c0,8.1-3.7,15.3-9.4,20.1c-4.5,3.8-10.4,6.1-16.7,6.1
		C15.6,56.1,3.9,44.4,3.9,30c0-9.3,4.9-17.5,12.2-22.1l-1.8-2.4C6.2,10.6,0.9,19.7,0.9,30C0.9,46.1,14,59.1,30,59.1
		c7,0,13.5-2.5,18.5-6.6C55,47.1,59.1,39,59.1,30C59.1,13.9,46.1,0.9,30,0.9z"/>
</g>
<circle id="backup" class="st1" cx="30" cy="30" r="27.6"/>
<g>
	<path class="st2" d="M25,45.1c2.8,0,5-2.3,5-5v-5h-5c-2.8,0-5,2.3-5,5C19.9,42.9,22.2,45.1,25,45.1z"/>
	<path class="st3" d="M19.9,30c0-2.8,2.3-5,5-5H30v10.1h-5C22.2,35.1,19.9,32.8,19.9,30L19.9,30z"/>
	<path class="st4" d="M19.9,19.9c0-2.8,2.3-5,5-5H30V25h-5C22.2,25,19.9,22.7,19.9,19.9L19.9,19.9z"/>
	<path class="st5" d="M29.9,14.9h5c2.8,0,5,2.3,5,5s-2.3,5-5,5h-5C29.9,24.9,29.9,14.9,29.9,14.9z"/>
	<g>
		<path class="st6" d="M40.1,30c0,2.8-2.3,5-5,5S30,32.7,30,30s2.3-5,5-5C37.8,25,40.1,27.2,40.1,30L40.1,30z"/>
	</g>
</g>
</svg>
