<?xml version="1.0" encoding="UTF-8"?>
<svg id="_레이어_1" data-name="레이어_1" xmlns="http://www.w3.org/2000/svg" version="1.1" viewBox="0 0 228.2 115">
  <!-- Generator: Adobe Illustrator 29.4.0, SVG Export Plug-In . SVG Version: 2.1.0 Build 152)  -->
  <g id="_레이어_11" data-name="_레이어_1">
    <g>
      <path d="M8.4,51.9V16.2c0-.5.3-.8.8-.8h7c.5,0,.8.3.8.8v29h11.1c.5,0,.8.3.8.8v5.9c0,.5-.3.8-.8.8H9.2c-.5,0-.8-.3-.8-.8Z"/>
      <path d="M33.6,18c0-2.5,2-4.4,4.6-4.4s4.5,2,4.5,4.4-1.9,4.5-4.5,4.5-4.6-2-4.6-4.5ZM34.1,27.4c0-.5.3-.8.8-.8h6.8c.5,0,.8.3.8.8v24.5c0,.5-.3.8-.8.8h-6.8c-.5,0-.8-.3-.8-.8v-24.5Z"/>
      <path d="M57,52.1l-10-24.6c-.2-.6,0-.9.7-.9h6.8c.4,0,.9.2,1,.6l5.8,16.1,5.8-16.1c.2-.4.5-.6,1-.6h6.8c.6,0,.9.3.7.9l-10,24.6c-.2.4-.5.6-1,.6h-6.7c-.4,0-.8-.2-1-.6h0Z"/>
      <path d="M77.7,39.6c0-7.7,5.5-13.6,13.7-13.6s12.9,5.8,12.9,12.5-.7,4.3-3.2,4.3h-15.4c.9,2.8,3.4,4.2,7.2,4.2s3.7-.2,5.9-1.4c.4-.2.7,0,1,.3l2.2,3.1c.2.3.2.8-.3,1.2-2.3,2.2-5.7,3.3-9.5,3.3-8.8,0-14.7-5.8-14.7-13.8h.2ZM97.1,37.1c-.5-3.1-2.7-4.4-5.5-4.4s-5.1,1.3-5.8,4.4h11.3Z"/>
      <path d="M8.4,100.7l5.1-35.7c0-.5.5-.8,1-.8h19.5c.5,0,.8.3.7.8l-.8,5.9c0,.5-.4.8-.9.8h-11.7l-1,7h11c.5,0,.8.3.7.8l-.8,5.9c0,.5-.5.8-1,.8h-10.9l-2.1,14.5c0,.5-.4.8-.9.8h-7c-.5,0-.7-.3-.7-.8h-.2Z"/>
      <path d="M33.8,89.6c0-8.4,7.2-15.6,16.1-15.6s12.4,5,12.4,11.8-7.2,15.6-16.1,15.6-12.4-5-12.4-11.8ZM47.3,94c3.6,0,6.9-2.6,6.9-7s-2.2-5.5-5.3-5.5-6.9,2.6-6.9,7,2.2,5.5,5.3,5.5Z"/>
      <path d="M65.1,100.6l3.5-24.5c0-.5.4-.8.9-.8h6.4c.5,0,.8.3.8.8l-.3,3.8c1.2-3.1,3.3-5.3,6.4-5.3s2.1.3,2.5.7c.4.3.4.6.4,1.1l-.8,5.3c-.1.6-.5.9-1.3.7-.5-.2-1.2-.3-2-.3-3.1,0-5.7,1.8-6.3,6.1l-1.7,12.4c0,.5-.5.8-1,.8h-6.7c-.5,0-.8-.3-.8-.8h0Z"/>
      <path d="M93.3,100.8l-4.7-24.6c-.2-.6.2-.9.8-.9h6.4c.4,0,.9.2,1,.6l2.6,16,7.6-16c.2-.4.6-.6,1-.6h6.5c.4,0,.8.2.9.6l3.1,16,7.1-16c.2-.4.7-.6,1.1-.6h6.5c.6,0,.8.3.5.9l-11.7,24.6c-.2.4-.6.6-1,.6h-6.9c-.4,0-.8-.2-.9-.6l-3.3-16-7.8,16c-.2.4-.6.6-1,.6h-6.9c-.4,0-.8-.2-.9-.6h0Z"/>
      <path d="M133.1,89.9c0-8.4,5.9-15.9,14.6-15.9s6.4,1.5,7.8,3.9l.5-2.5c.1-.5.5-.8,1-.8h6c.5,0,.9.3.8.8l-3.5,24.5c-.1.5-.5.8-1,.8h-6c-.5,0-.9-.3-.8-.8l.2-2.6c-2.1,2.5-5,4-8.9,4-6.9,0-10.7-4.7-10.7-11.5h0ZM146.7,94c3.7,0,6.5-2.5,7.1-6.3.5-3.7-1.7-6.2-5.3-6.2s-7.1,3.5-7.1,7.2,2.1,5.4,5.3,5.4h0Z"/>
      <path d="M166.3,100.6l3.5-24.5c0-.5.4-.8.9-.8h6.4c.5,0,.8.3.8.8l-.3,3.8c1.2-3.1,3.3-5.3,6.4-5.3s2.1.3,2.5.7c.4.3.4.6.4,1.1l-.8,5.3c-.1.6-.5.9-1.3.7-.5-.2-1.2-.3-2-.3-3.1,0-5.7,1.8-6.3,6.1l-1.7,12.4c0,.5-.5.8-1,.8h-6.7c-.5,0-.7-.3-.7-.8h0Z"/>
      <path d="M212.3,62.7h6.7c.5,0,.8.3.8.8l-5.2,36.5c-.1.5-.5.8-1,.8h-6c-.5,0-.9-.3-.8-.8l.2-2.6c-2.1,2.5-5,4-8.9,4-6.9,0-10.7-4.7-10.7-11.5s5.9-15.9,14.6-15.9,6.2,1.4,7.6,3.7l1.8-14.2c0-.5.5-.8,1-.8h-.1ZM200.9,94c3.7,0,6.5-2.5,7.1-6.3.5-3.7-1.7-6.2-5.3-6.2s-7.1,3.5-7.1,7.2,2.1,5.4,5.3,5.4h0Z"/>
    </g>
  </g>
</svg>