<?xml version="1.0" encoding="utf-8"?>
<!-- Generator: Adobe Illustrator 27.4.1, SVG Export Plug-In . SVG Version: 6.00 Build 0)  -->
<svg version="1.1" id="레이어_1" xmlns="http://www.w3.org/2000/svg" xmlns:xlink="http://www.w3.org/1999/xlink" x="0px"
	 y="0px" viewBox="0 0 348 158" style="enable-background:new 0 0 348 158;" xml:space="preserve">
<style type="text/css">
	.st0{fill:#0080CB;}
	.st1{fill:#E62310;}
	.st2{fill:#2C1F86;}
</style>
<g>
	<g>
		<g>
			<path class="st0" d="M260.7,69.6c-3.6,0-6,2.3-6.6,4.6l-12.9,53.8h11.5c2.7,0,3.9-0.8,4.4-3.2l13.2-55.2H260.7z"/>
		</g>
	</g>
	<path class="st0" d="M176.9,100.2c-0.9,3.9-6.6,27.7-6.6,27.7l7.2,0v0c4.1,0,8-2.3,8.8-5.7c0,0,2.3-9.4,5-20.3
		c2.7-10.8-4.1-16.4-16.2-16.4c-1.3,0-29.2,0-30.1,0c-1.3,0-1.6,1.5-0.3,2.1c3.4,1.5,3.9,3.1,3.3,5.8l0,0l-8.2,34.6l7.2,0v0
		c4.1,0,8-2.3,8.8-5.7l6.6-26.9c0.4-1.5,1-1.8,2.4-1.8c0.6,0,6.2,0,7.2,0C175.8,93.6,177.8,96.4,176.9,100.2z"/>
	<g>
		<g>
			<path class="st1" d="M63.6,75.5c0,0-26.5,0-30.9,0c-1.7,0-2,1.9-0.3,2.6c4.2,1.8,4.9,3.8,4.1,7.2v0l-8.9,37.2
				c-0.3,2.6,0.6,5.5,6.2,5.5l0,0h18.9c20.4,0,34.8-10.8,38.3-25C94,90,86.9,75.5,63.6,75.5z M73.7,103.7
				C70.1,118.8,55.6,121,46.9,121c-0.2,0-0.6,0-1.4,0l8.9-37.2c2.2,0,4.8,0,4.8,0C73.3,83.7,75.9,94,73.7,103.7z"/>
		</g>
		<path class="st1" d="M121.1,84.9c-16.3,0-22.7,6.4-24.3,13.3H108c0.9,0,1.4,0,2-0.8c1.7-2.2,4.6-5.7,10.7-5.7
			c3.5,0,4.9,1.9,4.3,4.3c-0.7,3-2.8,4.4-8.9,6c-11.9,3-23.2,6.3-25.2,14.7c-1.5,6.2,1.6,12.1,14,12.1c3.4,0,10-1.4,14.1-5.4h0.2
			c0,0,0.4,4.2,7.1,4.6l5.2,0l7-29.3C140.2,93.3,141,84.9,121.1,84.9z M111.3,121.5c-6.8,1.2-8.7-6.4-0.3-10c3.5-1.5,7.7-3.1,12-4.4
			C122.3,109.8,120.5,119.8,111.3,121.5z"/>
	</g>
	<path class="st0" d="M223.2,84.9c-16.3,0-22.7,6.4-24.3,13.3h11.2c0.9,0,1.4,0,2-0.8c1.7-2.2,4.6-5.7,10.7-5.7
		c3.5,0,4.9,1.9,4.3,4.3c-0.7,3-2.8,4.4-8.9,6c-11.9,3-23.2,6.3-25.2,14.7c-1.5,6.2,1.6,12.1,14,12.1c3.4,0,9.9-1.4,14.1-5.4h0.2
		c0,0,0.4,4.2,7.1,4.6l5.2,0l7-29.3C242.3,93.3,243.1,84.9,223.2,84.9z M213.4,121.5c-6.8,1.2-8.7-6.4-0.3-10
		c3.5-1.5,7.7-3.1,12-4.4C224.5,109.8,222.6,119.8,213.4,121.5z"/>
	<path class="st1" d="M249.3,24.3c-1.5-0.1-3,0-4.6,0.1c-1,0.2,4.1,9.7,12.1,12.7c-1.2,0.3-2.4,0.7-3.7,1.2
		c-0.8,0.4,3.9,8.1,12.2,7.7c-1,0.4-2,0.9-3,1.5c-0.6,0.4,6.1,6.4,14.4,4.3c10.3,17.7,10.9,37.6,8.8,48.1
		C335.4,78.2,313.4,23.9,249.3,24.3z"/>
	<path class="st0" d="M301.5,9.2c-1.4,0.1,1.2,8.3,9.1,13.6c0,0,0,0,0,0.1c-2-0.5-4.2-0.9-6.6-1.3c-1.4-0.1-0.3,8.7,7.8,14.2
		c0,0,0,0,0,0c-2.1-0.5-4.4-0.7-7.1-0.7c-0.7,0,0.4,5.5,5.7,10.7c-4.4,20.6-17.5,42.9-24.8,54C342.3,76.4,366.8,6.2,301.5,9.2z"/>
	<path class="st2" d="M309,51.4c-5.3,18.9-16.8,38.3-23.4,48.5C311.7,88.5,318.1,68.1,309,51.4z"/>
</g>
</svg>
