<?xml version="1.0" encoding="utf-8"?>
<!-- Generator: Adobe Illustrator 27.8.1, SVG Export Plug-In . SVG Version: 6.00 Build 0)  -->
<svg version="1.1" id="레이어_1" xmlns="http://www.w3.org/2000/svg" xmlns:xlink="http://www.w3.org/1999/xlink" x="0px"
	 y="0px" viewBox="0 0 600 600" style="enable-background:new 0 0 600 600;" xml:space="preserve">
<style type="text/css">
	.st0{fill:#005CA9;}
	.st1{fill:#C59600;}
	.st2{fill:#FFFFFF;}
</style>
<g>
	<g>
		<g>
			<polygon class="st0" points="219.7,78.6 157.1,110.6 161,118.3 187.5,104.7 196.7,122.8 206.3,117.9 197.1,99.8 223.6,86.2 			
				"/>
			<path class="st0" d="M181.5,81.1c8.7,5.7,18.3,0.7,18.3,0.7l14.3-7.3l-3.4-6.6l-11,5.6c0,0-8.4,4.7-14.9-2.2l21.9-11.2l-3.9-7.6
				l-57,29.2l3.9,7.6l21.9-11.2c1.8,9.3-7,13.4-7,13.4l-11,5.6l3.4,6.6l14.3-7.3C171.3,96.4,181,91.5,181.5,81.1z"/>
		</g>
		<g>
			<polygon class="st0" points="113.1,122.4 105.8,131.8 97.9,125.8 91.3,134.3 138.7,170.8 145.3,162.2 112.6,137 119.9,127.6 			
				"/>
			<path class="st0" d="M82.5,147.9c-5.8,2.9-11.2,10.2-11.2,10.2s-5.7,7.1-7,13.5c0,0-3,11,7.1,19.1c10.5,7.7,20.3,2,20.3,2
				c5.8-2.9,11.2-10.2,11.2-10.2s5.7-7.1,7.1-13.5c0,0,3-11-7.1-19.1C92.4,142.2,82.5,147.9,82.5,147.9z M99.9,169.3
				c-0.8,3.6-4.1,7.8-4.1,7.8s-3.2,4.3-6.5,6c0,0-5.6,3.4-11.4-0.8c-5.5-4.5-3.7-10.8-3.7-10.8c0.8-3.6,4.2-7.8,4.2-7.8
				s3.1-4.3,6.4-6c0,0,5.6-3.4,11.3,0.8C101.7,163,99.9,169.3,99.9,169.3z"/>
		</g>
		<path class="st0" d="M318.3,37.3v10h-7.4v-10H300v30.4h-25.8l-0.4-0.5V45.7h20.2v-8.5h-30.5l0,0h0V70c0,0,0,0.1,0,0.1
			c0,3.5,2.8,6.3,6.2,6.3c0.1,0,0.2,0,0.3,0H300V97h10.8V55.9h7.4V97h10.8V37.3H318.3z"/>
		<path class="st0" d="M497.8,196.6l31.8-25.2l0,0c0,0,0.1-0.1,0.1-0.1c2.6-2,3.1-5.7,1.3-8.3l0,0l-31.9-40.4l-6.7,5.3l29.3,37.1
			l-30.2,23.9l-6.4-8.1l22.7-18l-6.1-7.8l-22.8,18l-5.6-7l22.8-18l-6.2-7.8l-22.8,18l-8.3-10.6l-6.7,5.3l43.8,55.4l6.7-5.3
			L497.8,196.6z"/>
		<g>
			<polygon class="st0" points="450.7,89.8 440.5,84.8 445.1,75.4 436.2,71 423.6,96.5 432.5,100.9 437.1,91.5 447.3,96.6 			"/>
			<path class="st0" d="M427.7,110.7c1.5-3.1,0.2-6.8-2.8-8.3l0,0l-50.3-24.8l-3.5,7.1l47,23.2l-8.3,17l8.9,4.3L427.7,110.7
				L427.7,110.7C427.6,110.8,427.7,110.7,427.7,110.7z"/>
			<path class="st0" d="M382.8,61.3c0,0-2,4.1-1.6,7.5c0,0,0.3,4.8,4.6,8.8c2.1,2,5.4,3.8,10,6.1c4.5,2.2,8,3.7,10.9,4.2
				c5.9,0.9,9.8-1.7,9.8-1.7c2.9-1.7,4.9-5.8,4.9-5.8s1.6-3.2,1.7-6.3l4.8,2.4l3.8-7.7l-18.5-9.1l2.1-4.2l-8.9-4.4l-2.1,4.2
				l-18.4-9.1l-3.8,7.7l4.7,2.4C384.3,58.1,382.8,61.3,382.8,61.3z M410.7,78.9c0,0-1.8,1.2-4.6,0.8c-1.3-0.2-4.9-1.9-7-2.9
				c-2.1-1-5.3-2.7-6.3-3.6c-2-1.9-2.1-4.1-2.1-4.1c-0.2-1.5,0.7-3.4,0.7-3.4s0.9-1.9,2.3-2.7c0,0,1.8-1.2,4.6-0.8
				c1.3,0.2,4.6,1.7,6.8,2.8c2.1,1,5.6,2.8,6.6,3.8c2,1.9,2.1,4.1,2.1,4.1c0.2,1.6-0.8,3.5-0.8,3.5S412.1,78.1,410.7,78.9z"/>
		</g>
		<g>
			<path class="st0" d="M59.2,338.3l-2-17.3l-17.6-4.3l-0.7-5.9l40.1,10.9c2.6,0.7,5.6,1.6,6.2-1.8l0.3,0l1.3,10.8l-33.4,18.3
				c-3.7,2.1-7.4,3.7-9.1,7.9l-1.2-10.3L59.2,338.3z M80.4,327l-18-4.8l1.6,13.5L80.4,327z"/>
			<path class="st0" d="M84,362.5c3-0.9,7.9-2.1,8.1-5.8l0.3-0.1l3.9,12.5l-0.3,0.1c-2.3-2.9-6.9-1-9.9,0l-37.3,11.7
				c-7,2.2-12.3-1-15.6-9l0.1-0.3c6.6,4,10.4,3.6,17.5,1.4L84,362.5z"/>
			<path class="st0" d="M101.1,437.8c-13,5.3-26.8-1.5-32-14.2c-5.2-12.6-0.6-27,12.5-32.3c12.1-5,26.5,1.3,31.7,14.8
				C118.9,419.4,112.6,433.1,101.1,437.8z M85.1,398.3c-8.9,3.7-15.4,13.8-11.3,23.7c4,9.7,13.6,12.9,23.1,9
				c9.3-3.8,15.8-13.5,11.6-23.5C104.5,397.7,94.7,394.4,85.1,398.3z"/>
			<path class="st0" d="M123.2,490.2l3.2-3.2c-5,0.7-10.1-2.1-13.5-5.5c-3.2-3.2-5.6-7.6-5.5-12.2c0.2-5.4,3.6-8.5,7.1-12.1l13-13
				c2.2-2.2,6.1-5.4,4.8-9l7.2,7.2l-7,6.8l-13,13c-6.5,6.5-6.7,12.2-1.7,17.2c2.7,2.8,6.6,4.4,10.5,3.7c2.5-0.4,3.7-1.7,5.5-3.4
				l14.6-14.7c2.2-2.2,6-5.4,4.7-9l7.2,7.2l-7,6.8l-25.1,25.2L123.2,490.2z"/>
			<path class="st0" d="M211.3,543.2l1.7-4c-4.3,2.5-10.2,1.9-14.6,0.1c-4.2-1.7-8.1-4.9-9.7-9.2c-1.9-5.1,0-9.3,1.9-13.9l7-17
				c1.2-2.9,3.5-7.3,1-10.2l9.4,3.9l-3.9,8.9l-7,17c-3.5,8.5-1.5,13.9,5,16.6c3.6,1.5,7.8,1.5,11.1-0.6c2.2-1.3,2.8-3,3.7-5.3
				l7.9-19.1c1.2-2.9,3.5-7.4,0.9-10.2l9.4,3.9l-3.9,9l-13.5,32.7L211.3,543.2z"/>
			<path class="st0" d="M291.4,522l-4.4,38.4c-4.7-2.2-6.5-4.7-9.1-8.9l-20-32.5l-4.1,35.2l-4.9-0.6l4.1-36c0.5-3.8,0.8-6.5-2.5-9
				l0-0.3l10,1.1v0.1c0.2,0.8,0.4,1.2,0.8,1.8l0.8,1.5l21.4,34.5l3-25.9c0.4-3.8,0.8-6.8-2.5-9.3l8.6,1L291.4,522z"/>
			<path class="st0" d="M314.3,558.2l-1.8-35.6c-0.1-3.2,0.1-8.2-3.5-9.4l10-0.5l0.5,9.5l1.7,35.6L314.3,558.2z"/>
			<path class="st0" d="M521,435.5l-30.7-18.1c-2.7-1.6-6.8-4.5-9.8-2.2l5.1-8.7l8.2,4.9l30.7,18.1L521,435.5z"/>
			<path class="st0" d="M364.3,516.9c0.7-5.2,1.7-11.2-2.9-11.8l-0.1-0.3l10-2.4l-6.8,50.3c-5.4-2-7.1-2.2-10.3-7l-16.6-25
				c-2.1-3.1-4-6.7-7.5-8.3l-0.1-0.3l9.8-2.3l0.1,0.8c0.3,1.5,2.4,4.4,3.3,5.8l17.5,26.6L364.3,516.9z"/>
			<path class="st0" d="M400.4,529.1L389,505.7c-1.4-2.8-3.2-7.5-6.9-7.1l-0.1-0.2l19.8-9.7c1.1-0.5,2.2-0.8,2.8-1.7l0.2-0.1
				l3.5,7.2l-0.2,0.1c-3-1.3-5.6-0.3-8.5,1.1c-2.1,1-4.3,2.2-6.1,3.5l5.6,11.5l7.4-3.6c1-0.4,2-0.9,2.5-1.7l0.2-0.1l3.2,6.5
				l-0.2,0.1c-1.9-1.3-4.4,0-6.4,1l-4.6,2.2l7.2,14.7l8.2-3.1c4.3-1.6,7.9-5,9.6-9.2l0.2-0.1l1.2,9.5l-23.1,11.2L400.4,529.1z"/>
			<path class="st0" d="M450.5,510.6l-21.8-28c-1.9-2.5-4.7-6.8-8.2-5.6l-0.2-0.2l12.9-10.1c7.3-5.7,14.2-5,18.1,0
				c3.7,4.8,2.5,11.8-1.2,16.3l15.5,3.7c4.5,1,10.1,1.2,14.7,0.7l-5,3.9c-2.9,2.3-5.2,3-8.4,2.2l-13-3l-10.9-3.7
				c3.8-4,7.3-10,3.3-15.1c-3-3.9-8.2-3.5-11.7-0.5c-1.2,1-2.3,2.1-3.3,3.3l24.9,31.9L450.5,510.6z"/>
			<path class="st0" d="M479.1,433.1c-3.8,0.3-7.7,2.6-10.2,5.6c-2.5,3-4.5,7.8-0.8,10.8c7.3,5.9,22.2-12.4,32-4.3
				c5.7,4.6,6.1,15-0.7,23.3c-2.7,3.2-5.8,6.1-9.4,8.2l-7.9-3.9c5.3-0.9,10.6-3.9,14-8c2.5-3.1,4.4-9.1,0.7-12.2
				c-8.3-6.8-21.8,12.7-33.1,3.4c-6.7-5.5-3.6-14.5,1.7-21c2.2-2.6,4.8-5.1,7.7-7L479.1,433.1z"/>
			<path class="st0" d="M555.8,343l-19.5-2.8l-19.8,8.7c-3.3,1.4-5.7,2.4-8,5.4l1.5-10.1l21.4-9.2L520,324.7
				c-1.5-1.4-4.6-3.4-6.9,0.1l-0.2,0l1.7-11.9l22.8,20.4l19.5,2.8L555.8,343z"/>
			<path class="st0" d="M492.8,395.2l6.3,4.9l0.1-0.2c-1.1-2.7-0.6-5.9,0.4-8.6l2.2-5.6l37.6,14.8l2.5-6.5l-37.6-14.8l2.3-5.8
				c0.8-2.1,2.2-4.6,4.7-4.5l0.1-0.2l-6.4-4.7L492.8,395.2z"/>
		</g>
		<path class="st0" d="M299.7,9C139.3,9,9.1,139.1,9.1,299.5c0,160.7,130.1,290.8,290.5,290.8c160.6,0,290.8-130.2,290.8-290.8
			C590.4,139.1,460.3,9,299.7,9z M299.7,581.7C144,581.7,17.8,455.4,17.8,299.5C17.8,143.9,144,17.6,299.7,17.6
			c155.9,0,282.1,126.3,282.1,281.9C581.8,455.4,455.5,581.7,299.7,581.7z"/>
		<path class="st0" d="M488.7,299.5c0,104.4-84.6,189-189,189c-104.2,0-188.7-84.6-188.7-189c0-104.2,84.5-188.7,188.7-188.7
			C404.1,110.8,488.7,195.4,488.7,299.5z"/>
		<path class="st0" d="M79.2,251.7c0,4.3-3.5,7.8-7.8,7.8c-4.3,0-7.8-3.5-7.8-7.8c0-4.3,3.5-7.9,7.8-7.9
			C75.7,243.8,79.2,247.3,79.2,251.7z"/>
		<path class="st0" d="M537.3,251.7c0,4.3-3.5,7.8-7.8,7.8c-4.3,0-7.8-3.5-7.8-7.8c0-4.3,3.5-7.9,7.8-7.9
			C533.8,243.8,537.3,247.3,537.3,251.7z"/>
		<g>
			<path class="st1" d="M266.1,138.3l-79.3,116.2c0,0-19.2,23.9-3.3,55.3l41.3,63.7c0,0,7.1,12.6,21.6,12.6h31c0,0-4.9-1.9-8-6.3
				l-46.1-70.9c0,0-7.5-12.1-6.9-24.3c0,0,0.5-10.7,6.8-20.9l43.2-64.8l51.1,79.2c0,0,5.8,8.7-0.3,15.6c0,0-3.7,3.9-13.1,0.9
				l17.8,27.5c0,0,3.2,4.4,8.5,4.4c0,0,3.8,0,7.3-4.3l13.3-21.4c0,0,9.7-12.7-0.5-32.6L266.1,138.3z"/>
			<path class="st1" d="M370.5,375.5l39.3-59.2c0,0,19.3-23.9,3.3-55.3l-71.2-109.8c0,0-7.1-12.6-21.6-12.6h-31c0,0,4.9,1.9,8,6.3
				l74.4,113.3c0,0,10,15.1,8.5,28c0,0-0.5,10.7-6.8,20.9l-25.7,40.1c-4.3,5.5-8.8,5.7-8.8,5.7h-15.6c-5.1-0.6-8.8-6.5-8.8-6.5
				L279,292.8c0,0-5.8-8.7,0.3-15.6c0,0,3.8-3.9,13.1-0.8l-17.9-27.6c0,0-3.2-4.4-8.5-4.4c0,0-3.8,0-7.3,4.3L245.5,270
				c0,0-9.7,12.7,0.5,32.6l47.8,73.3c0,0,6.6,10.1,16.1,10.1h42.9C352.8,386.1,363.5,386.4,370.5,375.5z"/>
		</g>
		<g>
			<path class="st2" d="M251.6,455.3h-6.3v-40.8l-7.2,4.8v-6.1c1.6-0.7,6.1-4.1,8.1-5.7h5.4V455.3z"/>
			<path class="st2" d="M293.2,431.6c0,12.5,0.1,24.7-12.9,24.7c-7.2,0-11.9-4.9-11.8-12.5h6.3c0,3.5,1.4,7.2,5.4,7.2
				c6.1,0,6.6-6.8,6.6-19h-0.2c-1.5,3.3-4.5,4.5-8.2,4.5c-3.8,0-11-2-11-15.1c0-10.7,6.4-14.7,12.7-14.7
				C293.4,406.7,293.2,418.7,293.2,431.6z M273.9,421.2c0,4.8,0.9,9.9,6.4,9.9c5.5,0,6.4-5.2,6.4-9.9c0-4.3-0.9-9.9-6.4-9.9
				C274.9,411.3,273.9,416.9,273.9,421.2z"/>
			<path class="st2" d="M300.6,407.5h24.7v5.5l-12.7,42.3h-7.2l13.4-42.3h-18.2V407.5z"/>
			<path class="st2" d="M343.5,427.4c5.7,0.5,9.8-1.8,9.8-7.9c0-4.4-1.9-7.5-6.6-7.5c-5.3,0-6.1,3.9-6,7.8h-6.3
				c-0.5-8.1,3.4-13.1,12.3-13.1c8.1,0,12.9,4,12.9,12.4c0,9-6.7,10.4-9.4,11.1v0.1c7.5,1,9.9,5,9.9,12.2c0,9.3-5,13.8-14.2,13.8
				c-13.4,0-12.3-11.5-12.3-14.2h6.3c0.1,4.7,0.8,8.9,6.5,8.9c5.6,0,7.3-3.5,7.3-8.6c0-7.7-2.9-9.3-10.3-9.3V427.4z"/>
		</g>
	</g>
</g>
</svg>
