<?xml version="1.0" encoding="utf-8"?>
<!-- Generator: Adobe Illustrator 27.7.0, SVG Export Plug-In . SVG Version: 6.00 Build 0)  -->
<svg version="1.1" id="레이어_1" xmlns="http://www.w3.org/2000/svg" xmlns:xlink="http://www.w3.org/1999/xlink" x="0px"
	 y="0px" viewBox="0 0 60 60" style="enable-background:new 0 0 60 60;" xml:space="preserve">
<style type="text/css">
	.st0{fill:#00005B;}
	.st1{fill:#9999FF;}
</style>
<g>
	<path class="st0" d="M45.5,6.6h-31C9.8,6.6,6,10.4,6,15.1v29.8c0,4.7,3.8,8.5,8.5,8.5h31c4.7,0,8.5-3.8,8.5-8.5V15.1
		C54,10.4,50.2,6.6,45.5,6.6z"/>
	<path class="st1" d="M25.3,34.6h-7.4l-1.5,4.7c0,0.1-0.1,0.2-0.1,0.2c-0.1,0.1-0.2,0.1-0.2,0.1h-3.8c-0.2,0-0.3-0.1-0.2-0.4
		l6.4-18.5c0.1-0.2,0.1-0.4,0.2-0.6c0.1-0.4,0.1-0.9,0.1-1.3c0,0,0-0.1,0-0.1c0,0,0-0.1,0-0.1c0,0,0,0,0.1,0c0,0,0.1,0,0.1,0h5.1
		c0.1,0,0.2,0.1,0.3,0.2l7.3,20.5c0.1,0.2,0,0.3-0.2,0.3h-4.2c-0.1,0-0.1,0-0.2-0.1c-0.1,0-0.1-0.1-0.1-0.2L25.3,34.6z M19,30.6h5.1
		c-0.1-0.4-0.3-0.9-0.5-1.4s-0.4-1.1-0.5-1.7c-0.2-0.6-0.4-1.2-0.6-1.8c-0.2-0.6-0.4-1.2-0.5-1.8c-0.2-0.6-0.3-1.1-0.4-1.6h0
		c-0.2,0.9-0.4,1.7-0.7,2.6c-0.3,1-0.6,2-0.9,3C19.6,28.8,19.3,29.8,19,30.6z"/>
	<path class="st1" d="M43.5,32.8h-6.3c0.1,0.6,0.3,1.2,0.6,1.8c0.4,0.5,0.9,1,1.5,1.2c0.8,0.3,1.7,0.5,2.6,0.5
		c0.7,0,1.4-0.1,2.1-0.2c0.6-0.1,1.2-0.2,1.8-0.5c0.1-0.1,0.2,0,0.2,0.2v3.1c0,0.1,0,0.2,0,0.2c0,0.1-0.1,0.1-0.1,0.1
		c-0.6,0.3-1.3,0.5-2,0.6c-0.9,0.2-1.9,0.3-2.8,0.2c-1.5,0-2.8-0.2-3.8-0.7c-1-0.4-1.8-1.1-2.5-1.9c-0.6-0.8-1.1-1.7-1.4-2.6
		c-0.3-0.9-0.4-1.9-0.4-2.9c0-1.1,0.2-2.1,0.5-3.2c0.3-1,0.8-1.9,1.5-2.7c0.7-0.8,1.5-1.4,2.4-1.9c0.9-0.5,2.1-0.6,3.3-0.6
		c1.1,0,2.1,0.2,3.1,0.6c0.8,0.4,1.5,0.9,2.1,1.6c0.5,0.7,0.9,1.5,1.2,2.3c0.3,0.8,0.4,1.6,0.4,2.4c0,0.5,0,0.9,0,1.3
		c0,0.4-0.1,0.7-0.1,0.8c0,0.1,0,0.1-0.1,0.2c-0.1,0-0.1,0.1-0.2,0.1c-0.1,0-0.3,0-0.7,0c-0.3,0-0.7,0.1-1.2,0.1
		C44.5,32.8,44,32.8,43.5,32.8z M37.1,29.8h4.2c0.5,0,0.9,0,1.1,0c0.2,0,0.3-0.1,0.5-0.2v-0.2c0-0.3,0-0.5-0.1-0.7
		c-0.2-0.5-0.5-1-1-1.4c-0.5-0.3-1-0.5-1.6-0.5c-0.5,0-1.1,0.1-1.6,0.4c-0.5,0.3-0.9,0.7-1.1,1.2C37.4,28.9,37.2,29.3,37.1,29.8
		L37.1,29.8z"/>
</g>
</svg>
