<?xml version="1.0" encoding="utf-8"?>
<!-- Generator: Adobe Illustrator 27.8.1, SVG Export Plug-In . SVG Version: 6.00 Build 0)  -->
<svg version="1.1" id="레이어_1" xmlns="http://www.w3.org/2000/svg" xmlns:xlink="http://www.w3.org/1999/xlink" x="0px"
	 y="0px" viewBox="0 0 600 600" style="enable-background:new 0 0 600 600;" xml:space="preserve">
<style type="text/css">
	.st0{fill:url(#SVGID_1_);}
	.st1{fill:url(#SVGID_00000099662676696436617540000003350948415098514069_);}
</style>
<linearGradient id="SVGID_1_" gradientUnits="userSpaceOnUse" x1="17.7875" y1="354.4322" x2="581.806" y2="354.4322">
	<stop  offset="3.808498e-02" style="stop-color:#3883BD"/>
	<stop  offset="1" style="stop-color:#A095C2"/>
</linearGradient>
<path class="st0" d="M470.2,229.6c10.8,21,16.9,44.8,16.9,70c0,84.9-69,153.9-153.9,153.9h-87l120.1-120.1H232.5L17.8,548.2h315.5
	c137,0,248.5-111.5,248.5-248.5c0-51.5-15.7-99.3-42.6-139L470.2,229.6z"/>
<linearGradient id="SVGID_00000047774513540967068350000012449166699954138773_" gradientUnits="userSpaceOnUse" x1="84.7152" y1="192.1081" x2="472.2725" y2="192.1081">
	<stop  offset="3.808498e-02" style="stop-color:#3883BD"/>
	<stop  offset="1" style="stop-color:#A095C2"/>
</linearGradient>
<path style="fill:url(#SVGID_00000047774513540967068350000012449166699954138773_);" d="M179.4,145.8h153.9c25.2,0,49,6.1,70,16.9
	l69-69c-39.7-26.9-87.6-42.6-139-42.6H84.7v282l94.6-94.6V145.8z"/>
</svg>
