<svg width="30" height="30" viewBox="0 0 30 30" fill="none" xmlns="http://www.w3.org/2000/svg">
<path d="M22.2736 7.03534H14.1043C14.1043 8.01339 14.4929 8.95139 15.1844 9.64298C15.876 10.3346 16.814 10.7231 17.7921 10.7231H19.297V12.1761C19.2983 14.2109 20.9475 15.8602 22.9823 15.8615V7.74403C22.9823 7.35274 22.6651 7.03534 22.2736 7.03534Z" fill="#2684FF"/>
<path d="M18.2315 11.1058H10.0622C10.0635 13.1406 11.7127 14.7899 13.7476 14.7912H15.2525V16.2489C15.2551 18.2837 16.9054 19.9319 18.9402 19.9319V11.8146C18.9402 11.4232 18.6229 11.1058 18.2315 11.1058Z" fill="url(#paint0_linear_1723_889)"/>
<path d="M14.187 15.174H6.01767C6.01767 17.2106 7.66879 18.8617 9.70542 18.8617H11.215V20.3146C11.2164 22.3476 12.8627 23.9961 14.8957 24V15.8827C14.8957 15.4913 14.5784 15.174 14.187 15.174Z" fill="url(#paint1_linear_1723_889)"/>
<defs>
<linearGradient id="paint0_linear_1723_889" x1="2232.2" y1="15.1693" x2="1350.89" y2="1045.1" gradientUnits="userSpaceOnUse">
<stop offset="0.18" stop-color="#0052CC"/>
<stop offset="1" stop-color="#2684FF"/>
</linearGradient>
<linearGradient id="paint1_linear_1723_889" x1="2287.88" y1="26.6576" x2="1268.44" y2="1149.99" gradientUnits="userSpaceOnUse">
<stop offset="0.18" stop-color="#0052CC"/>
<stop offset="1" stop-color="#2684FF"/>
</linearGradient>
</defs>
</svg>
