<?xml version="1.0" encoding="utf-8"?>
<!-- Generator: Adobe Illustrator 27.7.0, SVG Export Plug-In . SVG Version: 6.00 Build 0)  -->
<svg version="1.1" id="레이어_1" xmlns="http://www.w3.org/2000/svg" xmlns:xlink="http://www.w3.org/1999/xlink" x="0px"
	 y="0px" viewBox="0 0 60 60" style="enable-background:new 0 0 60 60;" xml:space="preserve">
<style type="text/css">
	.st0{fill:#0ACF83;}
	.st1{fill:#A259FF;}
	.st2{fill:#F24E1E;}
	.st3{fill:#FF7262;}
	.st4{fill:#1ABCFE;}
</style>
<g>
	<path class="st0" d="M22.1,53.8c4.4,0,7.9-3.6,7.9-7.9V38h-7.9c-4.4,0-7.9,3.6-7.9,7.9S17.7,53.8,22.1,53.8z"/>
	<path class="st1" d="M14.1,30c0-4.4,3.6-7.9,7.9-7.9H30V38h-7.9C17.7,38,14.1,34.4,14.1,30L14.1,30z"/>
	<path class="st2" d="M14.1,14.1c0-4.4,3.6-7.9,7.9-7.9H30v15.9h-7.9C17.7,22.1,14.1,18.5,14.1,14.1L14.1,14.1z"/>
	<path class="st3" d="M29.9,6.2h7.9c4.4,0,7.9,3.6,7.9,7.9s-3.6,7.9-7.9,7.9h-7.9V6.2z"/>
	<g>
		<path class="st4" d="M45.9,30c0,4.4-3.6,7.9-7.9,7.9s-8-3.6-8-7.9s3.6-7.9,7.9-7.9S45.8,25.6,45.9,30L45.9,30z"/>
	</g>
</g>
</svg>
