<?xml version="1.0" encoding="utf-8"?>
<!-- Generator: Adobe Illustrator 27.4.1, SVG Export Plug-In . SVG Version: 6.00 Build 0)  -->
<svg version="1.1" xmlns="http://www.w3.org/2000/svg" xmlns:xlink="http://www.w3.org/1999/xlink" x="0px" y="0px"
	 viewBox="0 0 1249 244.3" style="enable-background:new 0 0 1249 244.3;" xml:space="preserve">
<style type="text/css">
	.st0{fill:#474D52;}
	.st1{fill:url(#SVGID_1_);}
	.st2{fill:url(#SVGID_00000002365027380320139870000012960263102547613832_);}
	.st3{fill:url(#SVGID_00000044148866594456837590000006666641699142399639_);}
	.st4{fill:url(#SVGID_00000149375366908424458380000009132199115042336675_);}
	.st5{fill:url(#SVGID_00000065755821885759550790000009197461990869151667_);}
	.st6{fill:url(#SVGID_00000155104051124444153630000007897143453871109267_);}
	.st7{fill:url(#SVGID_00000057858926480118070080000005618660304683366019_);}
	.st8{fill-rule:evenodd;clip-rule:evenodd;fill:url(#SVGID_00000009552665776357983140000002801384418421310371_);}
	.st9{fill-rule:evenodd;clip-rule:evenodd;fill:url(#SVGID_00000155148385470849528580000011204636557647710608_);}
	.st10{fill-rule:evenodd;clip-rule:evenodd;fill:url(#SVGID_00000072985530451960533530000005986280183849807516_);}
	.st11{fill-rule:evenodd;clip-rule:evenodd;fill:url(#SVGID_00000101810747968325624740000008586185977880659364_);}
	.st12{fill-rule:evenodd;clip-rule:evenodd;fill:url(#SVGID_00000098193930396711834830000012227911590096745630_);}
	.st13{fill-rule:evenodd;clip-rule:evenodd;fill:url(#SVGID_00000082342824450561658990000011863718907285100478_);}
	.st14{fill-rule:evenodd;clip-rule:evenodd;fill:url(#SVGID_00000066496914315100476460000017759302766052205745_);}
	.st15{fill-rule:evenodd;clip-rule:evenodd;fill:url(#SVGID_00000067923299038770450840000003945935803372642439_);}
	.st16{fill-rule:evenodd;clip-rule:evenodd;fill:url(#SVGID_00000103253267289018538060000013257487182333945278_);}
	.st17{fill-rule:evenodd;clip-rule:evenodd;fill:url(#SVGID_00000001658328237975330040000012946011952539066295_);}
	.st18{fill-rule:evenodd;clip-rule:evenodd;fill:url(#SVGID_00000183221139898407516580000017444641783479925183_);}
	.st19{fill-rule:evenodd;clip-rule:evenodd;fill:url(#SVGID_00000102544014323001749100000017054103749008777137_);}
	.st20{fill-rule:evenodd;clip-rule:evenodd;fill:url(#SVGID_00000003800919409393256820000009438118149600864145_);}
	.st21{fill-rule:evenodd;clip-rule:evenodd;fill:url(#SVGID_00000029739200854168433310000010447455689047516087_);}
	.st22{fill-rule:evenodd;clip-rule:evenodd;fill:url(#SVGID_00000084491446972363628270000015898070478042010502_);}
	.st23{fill-rule:evenodd;clip-rule:evenodd;fill:url(#SVGID_00000018959066806516002280000014363679817766008985_);}
	.st24{fill-rule:evenodd;clip-rule:evenodd;fill:url(#SVGID_00000033369527037037817740000007461640669044033165_);}
	.st25{fill-rule:evenodd;clip-rule:evenodd;fill:url(#SVGID_00000148621053443770632950000001359831564682192781_);}
</style>
<g id="레이어_1">
</g>
<g id="레이어_2">
</g>
<g id="레이어_3">
</g>
<g id="레이어_4">
</g>
<g id="레이어_5">
</g>
<g id="레이어_6">
</g>
<g id="레이어_7">
</g>
<g id="레이어_8">
</g>
<g id="레이어_9">
</g>
<g id="레이어_10">
</g>
<g id="레이어_11">
	<g>
		<g>
			<path class="st0" d="M324.4,170v23.7h-3.8l0-23.7h-8.9v-3.4h21.6l0.1,3.4H324.4z"/>
			<path class="st0" d="M364,193.7v-11.8c0-1.7-0.4-3-1.1-3.8c-0.7-0.8-1.8-1.1-3.3-1.1c-1.6,0-2.9,0.5-3.9,1.6
				c-1.1,1.1-1.6,2.4-1.6,3.9v11.2l-3.7,0v-27.1h3.6l0,9.5c0.8-0.8,1.9-1.5,3.1-2.1c1.2-0.6,2.8-0.8,4.6-0.6
				c2.1,0.3,3.7,1.2,4.6,2.7c0.9,1.5,1.4,2.9,1.4,4.3v13.4L364,193.7z"/>
			<path class="st0" d="M389,185c0.1,1.9,0.7,3.4,1.9,4.6c1.2,1.2,2.6,1.8,4.2,1.8c1.6,0,2.8-0.3,3.6-1c0.8-0.7,1.3-1.4,1.5-2h3.9
				c-0.5,1.4-1.4,2.7-2.8,4c-1.4,1.3-3.5,1.9-6.2,1.9c-2.9,0-5.3-1-7.1-3c-1.8-2-2.8-4.5-2.8-7.5c0-3,0.9-5.5,2.7-7.4
				c1.8-1.9,4.2-2.9,7.2-2.9c2.7,0,5,0.9,6.9,2.7c2,1.8,2.9,4.7,2.9,8.7L389,185z M401,182.1c-0.1-1.7-0.6-3.1-1.7-4.2
				c-1-1-2.5-1.6-4.3-1.6c-1.7,0-3,0.5-4.1,1.4c-1.1,1-1.7,2.4-1.9,4.3H401z"/>
			<path class="st0" d="M474,193.7l-2.7-6.6H458l-2.7,6.6l-3.9,0l11-27.1h4.4l11.1,27.1L474,193.7z M464.6,170.6l-5.3,13h10.5
				L464.6,170.6z"/>
			<path class="st0" d="M507.5,193.7v-11.8c0-1.7-0.4-3-1.1-3.8c-0.7-0.8-1.8-1.1-3.3-1.1c-1.6,0-2.9,0.5-3.9,1.6
				c-1.1,1.1-1.6,2.4-1.6,3.9v11.2l-3.7,0v-19.6h3.6l0,2.1c0.8-0.8,1.9-1.5,3.1-2.1c1.2-0.6,2.8-0.8,4.6-0.6
				c2.1,0.3,3.7,1.2,4.6,2.7c0.9,1.5,1.4,2.9,1.4,4.3v13.4L507.5,193.7z"/>
			<path class="st0" d="M545,185.2c0.7,0.7,1.1,1.7,1,3c-0.1,1.8-1,3.3-2.6,4.5c-1.6,1.2-3.6,1.8-5.8,1.8c-3.5,0-5.9-0.9-7.1-2.6
				c-1.3-1.8-1.9-3.3-2-4.6h3.7c0.1,1.1,0.6,2,1.5,2.7c0.9,0.7,2.1,1.1,3.7,1.1c1.3,0,2.3-0.2,3.1-0.7c0.8-0.4,1.3-1.1,1.4-1.9
				c0.1-0.5,0-1-0.5-1.4c-0.4-0.4-1-0.8-1.7-1.1c-1.1-0.5-2.2-0.9-3.4-1c-1.2-0.2-2.2-0.4-3.1-0.7c-1.2-0.4-2.2-1-3-1.8
				c-0.8-0.8-1.1-1.9-1.1-3.3c0.1-1.5,0.8-2.8,2.2-4c1.4-1.2,3.3-1.7,5.8-1.7c2.7,0,4.8,0.7,6.1,2.2c1.3,1.4,1.9,2.9,1.9,4.2h-3.7
				c0-0.5-0.3-1.2-0.9-1.9c-0.6-0.7-1.8-1.1-3.6-1.1c-1.5,0-2.5,0.3-3.1,0.8c-0.6,0.5-0.9,1.1-0.9,1.6c0,0.8,0.3,1.4,0.8,1.7
				c0.6,0.3,1.2,0.5,2,0.8c0.8,0.2,1.9,0.5,3.1,0.7c1.2,0.2,2.3,0.6,3.3,1.1C543.4,183.9,544.3,184.5,545,185.2z"/>
			<path class="st0" d="M583.4,193.7h-4.1l-3.9-13.6l-3.9,13.6h-4.1l-5.8-19.7h3.7l4.1,14.5l3.9-14.5h4.1l3.9,14.5l4.1-14.5h3.7
				L583.4,193.7z"/>
			<path class="st0" d="M608.4,185c0.1,1.9,0.7,3.4,1.9,4.6c1.2,1.2,2.6,1.8,4.2,1.8c1.6,0,2.8-0.3,3.6-1c0.8-0.7,1.3-1.4,1.5-2h3.9
				c-0.5,1.4-1.4,2.7-2.8,4c-1.4,1.3-3.5,1.9-6.2,1.9c-2.9,0-5.3-1-7.1-3c-1.8-2-2.8-4.5-2.8-7.5c0-3,0.9-5.5,2.7-7.4
				c1.8-1.9,4.2-2.9,7.2-2.9c2.7,0,5,0.9,6.9,2.7c2,1.8,2.9,4.7,2.9,8.7L608.4,185z M620.4,182.1c-0.1-1.7-0.6-3.1-1.7-4.2
				c-1-1-2.5-1.6-4.3-1.6c-1.7,0-3,0.5-4.1,1.4c-1.1,1-1.7,2.4-1.9,4.3H620.4z"/>
			<path class="st0" d="M652.3,177.1c-0.7,0-1.3,0-1.8,0.1c-0.5,0.1-1,0.2-1.5,0.4c-1.1,0.6-2,1.4-2.6,2.5c-0.6,1.1-0.9,2.5-0.9,4.3
				v9.3l-3.7,0v-19.6h3.6l0,2.8c0.5-0.8,1-1.4,1.6-1.8c0.6-0.5,1.3-0.9,2.1-1.2c0.6-0.3,1.2-0.4,1.9-0.4c0.7,0,1,0,1.1,0
				L652.3,177.1z"/>
			<path class="st0" d="M701.2,193.6v-27h3.6v27H701.2z"/>
			<path class="st0" d="M738.8,185.2c0.8,0.7,1.1,1.7,1,3c-0.1,1.8-1,3.3-2.6,4.5c-1.6,1.2-3.6,1.8-5.8,1.8c-3.5,0-5.9-0.9-7.1-2.6
				c-1.3-1.8-1.9-3.3-2-4.6h3.7c0.1,1.1,0.6,2,1.5,2.7c0.9,0.7,2.1,1.1,3.7,1.1c1.3,0,2.3-0.2,3.1-0.7c0.8-0.4,1.3-1.1,1.4-1.9
				c0.1-0.5,0-1-0.5-1.4c-0.4-0.4-1-0.8-1.7-1.1c-1.1-0.5-2.2-0.9-3.4-1c-1.2-0.2-2.2-0.4-3.1-0.7c-1.2-0.4-2.2-1-3-1.8
				c-0.8-0.8-1.1-1.9-1.1-3.3c0.1-1.5,0.8-2.8,2.2-4c1.4-1.2,3.3-1.7,5.8-1.7c2.7,0,4.8,0.7,6.1,2.2c1.3,1.4,1.9,2.9,1.9,4.2h-3.7
				c0-0.5-0.3-1.2-0.9-1.9c-0.6-0.7-1.8-1.1-3.6-1.1c-1.5,0-2.5,0.3-3.1,0.8c-0.6,0.5-0.9,1.1-0.9,1.6c0,0.8,0.3,1.4,0.8,1.7
				c0.6,0.3,1.2,0.5,2,0.8c0.8,0.2,1.9,0.5,3.1,0.7c1.2,0.2,2.3,0.6,3.3,1.1C737.1,183.9,738,184.5,738.8,185.2z"/>
			<path class="st0" d="M809.1,193.7l-2.7-6.6H793l-2.7,6.6l-3.9,0l11-27.1h4.4l11.1,27.1L809.1,193.7z M799.7,170.6l-5.3,13h10.5
				L799.7,170.6z"/>
			<path class="st0" d="M829,193.7v-27.1h3.6l0,27.1L829,193.7z"/>
			<path class="st0" d="M871.3,193.7h-4.1l-3.9-13.6l-3.9,13.6h-4.1l-5.8-19.7h3.7l4.1,14.5l3.9-14.5h4.1l3.9,14.5l4.1-14.5h3.7
				L871.3,193.7z"/>
			<path class="st0" d="M908,193.7c-0.2-0.4-0.4-0.8-0.5-1.3c-0.1-0.4-0.2-0.9-0.2-1.3c-0.7,0.8-1.7,1.5-2.9,2.2
				c-1.2,0.7-2.6,1-4.2,1.1c-2,0.1-3.7-0.2-5.2-1c-1.5-0.8-2.4-2.1-2.6-3.9c-0.3-1.8,0.1-3.3,1-4.3c1-1,2.2-1.7,3.6-2.2
				c1.2-0.4,2.5-0.6,3.7-0.7c1.3-0.1,2.5-0.2,3.7-0.4c0.6-0.1,1.2-0.3,1.9-0.5c0.6-0.2,1-0.7,1-1.5c0-0.8-0.4-1.6-1.1-2.4
				c-0.8-0.8-2-1.1-3.9-1.1c-1.8,0-3.1,0.4-4,1.1c-0.8,0.7-1.2,1.6-1,2.6h-3.7c-0.2-2.2,0.6-3.9,2.4-5c1.8-1.2,3.9-1.7,6.4-1.7
				c2.3,0,4.3,0.6,6.1,1.7c1.8,1.1,2.7,2.7,2.7,4.8v10.7c0,0.9,0.1,1.6,0.4,2.2c0.3,0.6,0.4,1,0.4,1L908,193.7z M907.3,183.7
				c-0.2,0.2-0.5,0.3-0.8,0.5c-0.4,0.1-0.7,0.3-1.1,0.3c-0.8,0.2-1.9,0.3-3.1,0.5c-1.3,0.1-2.2,0.3-2.7,0.5c-1.1,0.3-2,0.8-2.6,1.3
				c-0.6,0.5-0.8,1.2-0.7,2.2c0.1,1,0.6,1.7,1.5,2c0.9,0.3,1.8,0.5,2.8,0.4c2.2-0.2,3.9-0.8,5-2c1.2-1.1,1.7-2.2,1.7-3.2V183.7z"/>
			<path class="st0" d="M937.7,196.9c-0.3,0.7-0.6,1.2-1.1,1.7c-0.4,0.5-0.9,0.9-1.5,1.1c-0.6,0.3-1.2,0.5-1.7,0.5
				c-0.6,0.1-1.1,0.1-1.7,0.1l-1.3-0.1v-3l1.9,0c0.5,0,1-0.2,1.3-0.5c0.4-0.3,0.6-0.7,0.7-1l0.9-2.3l-7.9-19.5l3.8,0l5.9,14.9
				l6-14.9l3.8,0L937.7,196.9z"/>
			<path class="st0" d="M977.9,185.2c0.8,0.7,1.1,1.7,1,3c-0.1,1.8-1,3.3-2.6,4.5c-1.6,1.2-3.6,1.8-5.8,1.8c-3.5,0-5.9-0.9-7.1-2.6
				c-1.3-1.8-1.9-3.3-2-4.6h3.7c0.1,1.1,0.7,2,1.5,2.7c0.9,0.7,2.1,1.1,3.7,1.1c1.3,0,2.3-0.2,3.1-0.7c0.8-0.4,1.3-1.1,1.4-1.9
				c0.1-0.5,0-1-0.5-1.4c-0.4-0.4-1-0.8-1.7-1.1c-1.1-0.5-2.2-0.9-3.4-1c-1.2-0.2-2.2-0.4-3.1-0.7c-1.2-0.4-2.2-1-3-1.8
				c-0.8-0.8-1.1-1.9-1.1-3.3c0.1-1.5,0.8-2.8,2.2-4c1.4-1.2,3.3-1.7,5.8-1.7c2.7,0,4.8,0.7,6.1,2.2c1.3,1.4,1.9,2.9,1.9,4.2h-3.7
				c0-0.5-0.3-1.2-0.9-1.9c-0.6-0.7-1.8-1.1-3.6-1.1c-1.5,0-2.5,0.3-3.1,0.8c-0.6,0.5-0.9,1.1-0.9,1.6c0,0.8,0.3,1.4,0.8,1.7
				c0.6,0.3,1.2,0.5,2,0.8c0.8,0.2,1.9,0.5,3.1,0.7c1.2,0.2,2.3,0.6,3.3,1.1C976.3,183.9,977.1,184.5,977.9,185.2z"/>
			<path class="st0" d="M1046,168.8c1.8,1.5,2.7,3.5,2.7,5.9c0,2.4-0.9,4.4-2.7,6c-1.8,1.6-4,2.3-6.6,2.3h-7.4v10.6h-3.7v-27l11.1,0
				C1042,166.6,1044.2,167.3,1046,168.8z M1043,178.5c1.1-0.8,1.7-2,1.7-3.7c0-1.7-0.6-3-1.7-3.7c-1.1-0.7-2.3-1.1-3.7-1.1h-7.4v9.6
				h7.4C1040.7,179.7,1041.9,179.3,1043,178.5z"/>
			<path class="st0" d="M1066.8,185c0.1,1.9,0.7,3.4,1.9,4.6c1.2,1.2,2.6,1.8,4.2,1.8c1.6,0,2.8-0.3,3.6-1c0.8-0.7,1.3-1.4,1.5-2
				h3.9c-0.5,1.4-1.4,2.7-2.8,4c-1.4,1.3-3.5,1.9-6.2,1.9c-2.9,0-5.3-1-7.1-3c-1.8-2-2.8-4.5-2.8-7.5c0-3,0.9-5.5,2.7-7.4
				c1.8-1.9,4.2-2.9,7.2-2.9c2.7,0,5,0.9,6.9,2.7c2,1.8,2.9,4.7,2.9,8.7L1066.8,185z M1078.9,182.1c-0.1-1.7-0.6-3.1-1.7-4.2
				c-1-1-2.5-1.6-4.3-1.6c-1.7,0-3,0.5-4.1,1.4c-1.1,1-1.7,2.4-1.9,4.3H1078.9z"/>
			<path class="st0" d="M1116.3,176.3c1.8,2,2.7,4.5,2.7,7.6c0,3.1-0.9,5.6-2.7,7.6c-1.8,2-4.2,3-7.3,3c-3.1,0-5.6-1-7.3-3
				c-1.8-2-2.7-4.5-2.7-7.6c0-3.1,0.9-5.6,2.7-7.6c1.8-2,4.2-3,7.3-3C1112.1,173.3,1114.6,174.3,1116.3,176.3z M1113.5,189.3
				c1.1-1.4,1.7-3.2,1.7-5.4c0-2.2-0.6-4-1.7-5.4c-1.1-1.4-2.6-2-4.5-2c-1.9,0-3.4,0.7-4.5,2c-1.1,1.4-1.7,3.2-1.7,5.4
				c0,2.2,0.6,4,1.7,5.4c1.1,1.4,2.6,2.1,4.5,2.1C1110.9,191.4,1112.4,190.7,1113.5,189.3z"/>
			<path class="st0" d="M1153.5,176.1c1.8,1.9,2.6,4.5,2.6,7.7c0,3.3-0.9,5.9-2.6,7.8c-1.8,1.9-4.1,2.8-6.9,2.8
				c-1.3,0-2.5-0.2-3.6-0.7c-1.1-0.5-2-1.1-2.9-1.9v8.7h-3.7V174h3.6l0,1.8c0.8-0.8,1.8-1.5,2.9-1.9c1.1-0.5,2.3-0.7,3.6-0.7
				C1149.5,173.3,1151.8,174.2,1153.5,176.1z M1150.6,189.3c1.1-1.3,1.6-3.1,1.6-5.4c0-2.3-0.5-4.1-1.6-5.4
				c-1.1-1.3-2.6-1.9-4.5-1.9c-1.9,0-3.4,0.6-4.5,1.9c-1.1,1.3-1.6,3.1-1.6,5.4c0,2.3,0.5,4.1,1.6,5.4c1.1,1.3,2.6,1.9,4.5,1.9
				C1148,191.2,1149.5,190.6,1150.6,189.3z"/>
			<path class="st0" d="M1173.9,193.7v-27.1h3.6l0,27.1L1173.9,193.7z"/>
			<path class="st0" d="M1198.8,185c0.1,1.9,0.7,3.4,1.9,4.6c1.2,1.2,2.6,1.8,4.2,1.8c1.6,0,2.8-0.3,3.6-1c0.8-0.7,1.3-1.4,1.5-2
				h3.9c-0.5,1.4-1.4,2.7-2.8,4c-1.4,1.3-3.5,1.9-6.2,1.9c-2.9,0-5.3-1-7.1-3c-1.8-2-2.8-4.5-2.8-7.5c0-3,0.9-5.5,2.7-7.4
				c1.8-1.9,4.2-2.9,7.2-2.9c2.7,0,5,0.9,6.9,2.7c2,1.8,2.9,4.7,2.9,8.7L1198.8,185z M1210.9,182.1c-0.1-1.7-0.6-3.1-1.7-4.2
				c-1-1-2.5-1.6-4.3-1.6c-1.7,0-3,0.5-4.1,1.4c-1.1,1-1.7,2.4-1.9,4.3H1210.9z"/>
		</g>
		<g>
			<linearGradient id="SVGID_1_" gradientUnits="userSpaceOnUse" x1="94.1408" y1="-440.9741" x2="648.441" y2="461.2837">
				<stop  offset="0" style="stop-color:#7269A8"/>
				<stop  offset="0.4267" style="stop-color:#615E86"/>
				<stop  offset="1" style="stop-color:#474D52"/>
			</linearGradient>
			<path class="st1" d="M399.7,76.6h16.6v47.9c0,4.5,1.2,8,3.7,10.7c2.5,2.7,5.7,4.1,9.7,4.1c4.6,0,8.2-1.4,10.7-4.1
				c2.5-2.7,3.8-6.6,3.8-11.5V76.6h16.6v50.7c0,4.5-1.2,9.1-3.5,13.9c-2.3,4.8-5.9,8.5-10.7,11c-4.8,2.5-10.2,3.8-16.1,3.8
				c-10.7,0-18.6-3-23.6-9c-5-6-7.5-12.3-7.5-18.9V76.6z"/>
			
				<linearGradient id="SVGID_00000013876886275345651180000002764585864353192069_" gradientUnits="userSpaceOnUse" x1="158.3647" y1="-480.4348" x2="712.6682" y2="421.8282">
				<stop  offset="0" style="stop-color:#7269A8"/>
				<stop  offset="0.4267" style="stop-color:#615E86"/>
				<stop  offset="1" style="stop-color:#474D52"/>
			</linearGradient>
			<path style="fill:url(#SVGID_00000013876886275345651180000002764585864353192069_);" d="M495.1,76.6h20.1l14.7,47l14.7-47h19.4
				L574,155h-16.1L551,99.8L533.7,155H526l-17.7-55.6l-6.5,55.6h-16.4L495.1,76.6z"/>
			
				<linearGradient id="SVGID_00000051358570114551353870000006430944052050798262_" gradientUnits="userSpaceOnUse" x1="306.3694" y1="-571.3406" x2="860.6582" y2="330.8986">
				<stop  offset="0" style="stop-color:#7269A8"/>
				<stop  offset="0.4267" style="stop-color:#615E86"/>
				<stop  offset="1" style="stop-color:#474D52"/>
			</linearGradient>
			<path style="fill:url(#SVGID_00000051358570114551353870000006430944052050798262_);" d="M746.6,76.6h16.5V155h-16.4l-35.8-50.7
				V155h-16.9V76.6h16.7l35.9,50.4V76.6z"/>
			
				<linearGradient id="SVGID_00000016075976309489298210000001386070712797773492_" gradientUnits="userSpaceOnUse" x1="417.1232" y1="-639.404" x2="971.4282" y2="262.8615">
				<stop  offset="0" style="stop-color:#7269A8"/>
				<stop  offset="0.4267" style="stop-color:#615E86"/>
				<stop  offset="1" style="stop-color:#474D52"/>
			</linearGradient>
			<path style="fill:url(#SVGID_00000016075976309489298210000001386070712797773492_);" d="M829.4,76.6h17.1l19.8,52.1l19.9-52.1
				h17.1L873.6,155h-14.7L829.4,76.6z"/>
			
				<linearGradient id="SVGID_00000109031672493529984960000016923138478858799033_" gradientUnits="userSpaceOnUse" x1="518.6164" y1="-701.739" x2="1072.9147" y2="200.5156">
				<stop  offset="0" style="stop-color:#7269A8"/>
				<stop  offset="0.4267" style="stop-color:#615E86"/>
				<stop  offset="1" style="stop-color:#474D52"/>
			</linearGradient>
			<path style="fill:url(#SVGID_00000109031672493529984960000016923138478858799033_);" d="M1012.5,76.6h16.8v61.5h23.1V155h-39.9
				V76.6z"/>
			
				<linearGradient id="SVGID_00000155105877478643543080000002636580781444680074_" gradientUnits="userSpaceOnUse" x1="585.5322" y1="-742.8474" x2="1139.8242" y2="159.3972">
				<stop  offset="0" style="stop-color:#7269A8"/>
				<stop  offset="0.4267" style="stop-color:#615E86"/>
				<stop  offset="1" style="stop-color:#474D52"/>
			</linearGradient>
			<path style="fill:url(#SVGID_00000155105877478643543080000002636580781444680074_);" d="M1076.5,76.6h16.6v47.9
				c0,4.5,1.2,8,3.7,10.7c2.5,2.7,5.7,4.1,9.7,4.1c4.6,0,8.2-1.4,10.7-4.1c2.5-2.7,3.8-6.6,3.8-11.5V76.6h16.6v50.7
				c0,4.5-1.2,9.1-3.5,13.9c-2.3,4.8-5.9,8.5-10.6,11c-4.8,2.5-10.2,3.8-16.1,3.8c-10.7,0-18.6-3-23.6-9c-5-6-7.5-12.3-7.5-18.9
				V76.6z"/>
			
				<linearGradient id="SVGID_00000003826505098174608570000000246273442030527413_" gradientUnits="userSpaceOnUse" x1="648.9534" y1="-765.2455" x2="1196.2433" y2="125.6013">
				<stop  offset="0" style="stop-color:#7269A8"/>
				<stop  offset="0.4267" style="stop-color:#615E86"/>
				<stop  offset="1" style="stop-color:#474D52"/>
			</linearGradient>
			<polygon style="fill:url(#SVGID_00000003826505098174608570000000246273442030527413_);" points="1185.8,108 1185.8,93.1 
				1212.8,93.1 1212.8,79.1 1169.8,79.1 1169.8,156.1 1212.8,156.1 1212.8,141.1 1185.8,141.1 1185.8,123.2 			"/>
			<g>
				
					<linearGradient id="SVGID_00000060729038394366691860000013110937687684698547_" gradientUnits="userSpaceOnUse" x1="47.5853" y1="-400.4165" x2="593.4626" y2="488.131">
					<stop  offset="0" style="stop-color:#7269A8"/>
					<stop  offset="0.4267" style="stop-color:#615E86"/>
					<stop  offset="1" style="stop-color:#474D52"/>
				</linearGradient>
				
					<polygon style="fill-rule:evenodd;clip-rule:evenodd;fill:url(#SVGID_00000060729038394366691860000013110937687684698547_);" points="
					357.8,79.1 357.8,107.2 357.8,123.4 357.8,156.1 373.8,156.1 373.8,79.1 				"/>
				
					<linearGradient id="SVGID_00000143595165068587829200000008738683599400311716_" gradientUnits="userSpaceOnUse" x1="15.6229" y1="-376.753" x2="557.638" y2="505.5078">
					<stop  offset="0" style="stop-color:#7269A8"/>
					<stop  offset="0.4267" style="stop-color:#615E86"/>
					<stop  offset="1" style="stop-color:#474D52"/>
				</linearGradient>
				
					<polygon style="fill-rule:evenodd;clip-rule:evenodd;fill:url(#SVGID_00000143595165068587829200000008738683599400311716_);" points="
					311.8,156.1 326.8,156.1 326.8,123.4 326.8,107.2 326.8,79.1 311.8,79.1 				"/>
			</g>
			
				<linearGradient id="SVGID_00000056395811046497482760000015922694112929277316_" gradientUnits="userSpaceOnUse" x1="38.4233" y1="-406.7466" x2="592.7261" y2="495.5155">
				<stop  offset="0" style="stop-color:#7269A8"/>
				<stop  offset="0.4267" style="stop-color:#615E86"/>
				<stop  offset="1" style="stop-color:#474D52"/>
			</linearGradient>
			<path style="fill-rule:evenodd;clip-rule:evenodd;fill:url(#SVGID_00000056395811046497482760000015922694112929277316_);" d="
				M328.5,124.7c8.1-0.8,8-9.1,18.7-15.4c6.6-3.9,14.4-6.2,22.1-5.8c0,0,15.8,0.7,17.2-2.8C378.3,121.7,348.8,125.1,328.5,124.7z"/>
			
				<linearGradient id="SVGID_00000101083286845192030740000000763402663460626361_" gradientUnits="userSpaceOnUse" x1="636.4723" y1="-774.1179" x2="1190.7556" y2="128.1125">
				<stop  offset="0" style="stop-color:#7269A8"/>
				<stop  offset="0.4267" style="stop-color:#615E86"/>
				<stop  offset="1" style="stop-color:#474D52"/>
			</linearGradient>
			<path style="fill-rule:evenodd;clip-rule:evenodd;fill:url(#SVGID_00000101083286845192030740000000763402663460626361_);" d="
				M1158.8,128.4c7.1-0.7,7-8,16.5-13.5c5.8-3.4,12.7-5.5,19.5-5.1c0,0,14,0.7,15.2-2.5C1202.7,125.8,1176.7,128.7,1158.8,128.4z"/>
			
				<linearGradient id="SVGID_00000044140708111941401590000005610059557959858076_" gradientUnits="userSpaceOnUse" x1="241.962" y1="-531.7319" x2="796.2281" y2="370.4704">
				<stop  offset="0" style="stop-color:#7269A8"/>
				<stop  offset="0.4267" style="stop-color:#615E86"/>
				<stop  offset="1" style="stop-color:#474D52"/>
			</linearGradient>
			<path style="fill-rule:evenodd;clip-rule:evenodd;fill:url(#SVGID_00000044140708111941401590000005610059557959858076_);" d="
				M622,139.2c7.1-0.7,7-8,16.5-13.5c5.8-3.4,12.7-5.5,19.5-5.1c0,0,14,0.7,15.2-2.5C665.9,136.5,640,139.5,622,139.2z"/>
			
				<linearGradient id="SVGID_00000014594660459030342440000002083597934668762538_" gradientUnits="userSpaceOnUse" x1="451.3148" y1="-660.3861" x2="1005.6047" y2="241.8548">
				<stop  offset="0" style="stop-color:#7269A8"/>
				<stop  offset="0.4267" style="stop-color:#615E86"/>
				<stop  offset="1" style="stop-color:#474D52"/>
			</linearGradient>
			<path style="fill-rule:evenodd;clip-rule:evenodd;fill:url(#SVGID_00000014594660459030342440000002083597934668762538_);" d="
				M961.8,139.2c-7.1-0.7-7-8-16.5-13.5c-5.8-3.4-12.7-5.5-19.5-5.1c0,0-14,0.7-15.2-2.5C917.9,136.5,943.9,139.5,961.8,139.2z"/>
			
				<linearGradient id="SVGID_00000062904789778319435880000010587708885021700243_" gradientUnits="userSpaceOnUse" x1="230.4152" y1="-513.3573" x2="778.2925" y2="378.4456">
				<stop  offset="0" style="stop-color:#7269A8"/>
				<stop  offset="0.4267" style="stop-color:#615E86"/>
				<stop  offset="1" style="stop-color:#474D52"/>
			</linearGradient>
			
				<polygon style="fill-rule:evenodd;clip-rule:evenodd;fill:url(#SVGID_00000062904789778319435880000010587708885021700243_);" points="
				640.3,79.1 627.2,79.1 595.8,156.1 612.7,156.1 618.8,139.7 624.5,126.2 633.7,103 643.1,126.1 648.9,139.7 655.2,156.1 
				672.2,156.1 			"/>
			
				<linearGradient id="SVGID_00000173151639368663745410000006842184677223300278_" gradientUnits="userSpaceOnUse" x1="462.5051" y1="-653.6824" x2="1010.3853" y2="238.1252">
				<stop  offset="0" style="stop-color:#7269A8"/>
				<stop  offset="0.4267" style="stop-color:#615E86"/>
				<stop  offset="1" style="stop-color:#474D52"/>
			</linearGradient>
			
				<polygon style="fill-rule:evenodd;clip-rule:evenodd;fill:url(#SVGID_00000173151639368663745410000006842184677223300278_);" points="
				958.5,79.1 945.5,79.1 914.1,156.1 931,156.1 937.1,139.7 942.8,126.2 952,103 961.4,126.1 967.2,139.7 973.5,156.1 990.5,156.1 
							"/>
		</g>
		<g>
			
				<linearGradient id="SVGID_00000127752678756870295430000000055745966521823157_" gradientUnits="userSpaceOnUse" x1="69.8353" y1="-8.7217" x2="246.3638" y2="278.6212">
				<stop  offset="0" style="stop-color:#7269A8"/>
				<stop  offset="0.4267" style="stop-color:#615E86"/>
				<stop  offset="1" style="stop-color:#474D52"/>
			</linearGradient>
			<path style="fill-rule:evenodd;clip-rule:evenodd;fill:url(#SVGID_00000127752678756870295430000000055745966521823157_);" d="
				M143.4,126.2c-0.1-0.2-0.2-0.4-0.3-0.6c-2.6-5.7,1.8-9.9,6.8-12.1c-3.4,6.7,8.1,10,8.1,6c0,4.3,3.4,8.6-2.4,11.2
				C151.3,132.7,145.6,130.2,143.4,126.2z"/>
			
				<linearGradient id="SVGID_00000157275463230342752690000014505337340774533250_" gradientUnits="userSpaceOnUse" x1="86.954" y1="-19.2456" x2="263.4893" y2="268.1084">
				<stop  offset="0" style="stop-color:#7269A8"/>
				<stop  offset="0.4267" style="stop-color:#615E86"/>
				<stop  offset="1" style="stop-color:#474D52"/>
			</linearGradient>
			<path style="fill-rule:evenodd;clip-rule:evenodd;fill:url(#SVGID_00000157275463230342752690000014505337340774533250_);" d="
				M166.4,130c1.2-5.1,4.7-13.8-2.4-16.5c-2.8-1.1-9.3,0.8-6.7-4.2c2.2-4.4,8.3-4.2,12.1-2.9c3.5,1.2,5.2,3.1,7.6,5.6
				c4,4.1,12.1,7.6,4.7,13.6c-2.2,1.8-5.2,2.7-8,3.5C171.3,129.6,168.7,130,166.4,130z"/>
			
				<linearGradient id="SVGID_00000007395497437973081580000008199126353199979166_" gradientUnits="userSpaceOnUse" x1="65.0401" y1="-5.7807" x2="241.5725" y2="281.5685">
				<stop  offset="0" style="stop-color:#7269A8"/>
				<stop  offset="0.4267" style="stop-color:#615E86"/>
				<stop  offset="1" style="stop-color:#474D52"/>
			</linearGradient>
			<path style="fill-rule:evenodd;clip-rule:evenodd;fill:url(#SVGID_00000007395497437973081580000008199126353199979166_);" d="
				M133,125.1c0.6-4.6,2.2-7.1,7.1-0.3c0,0,13.3,18.5,34.1,10.2c0,0,5.4,2.9-6.8,9.3c0,0-36.8,12-34.8-6.3
				C132.9,135.5,132.5,129.4,133,125.1z"/>
			
				<linearGradient id="SVGID_00000093143572639289270970000017021696146406204840_" gradientUnits="userSpaceOnUse" x1="67.5833" y1="-7.3432" x2="244.1159" y2="280.0063">
				<stop  offset="0" style="stop-color:#7269A8"/>
				<stop  offset="0.4267" style="stop-color:#615E86"/>
				<stop  offset="1" style="stop-color:#474D52"/>
			</linearGradient>
			<path style="fill-rule:evenodd;clip-rule:evenodd;fill:url(#SVGID_00000093143572639289270970000017021696146406204840_);" d="
				M133.9,153.4c-1-0.8-2-1.8-2.8-2.8c-3-4,1.1-2.5,3.5-1.6c3.6,1.5,6.8,3.7,10.7,4.6c11.5,2.6,24-2,31-11.4
				c1.7-2.3,4.9-10.3,7.9-11c3.6-0.8,3.2,4.3,2.8,6.8c-1.8,12-13.5,18.8-24.4,20.8C154.4,160.2,141.3,159.3,133.9,153.4z"/>
			
				<linearGradient id="SVGID_00000078738868621598672920000001299558678511144613_" gradientUnits="userSpaceOnUse" x1="108.057" y1="-32.2046" x2="284.5868" y2="255.1404">
				<stop  offset="0" style="stop-color:#7269A8"/>
				<stop  offset="0.4267" style="stop-color:#615E86"/>
				<stop  offset="1" style="stop-color:#474D52"/>
			</linearGradient>
			<path style="fill-rule:evenodd;clip-rule:evenodd;fill:url(#SVGID_00000078738868621598672920000001299558678511144613_);" d="
				M191.8,139.4c1.1-5.4,0.1-9.7-0.6-14.9c-0.6-4.5,0.2-9.7,0.7-14.2c0.5-4.3,1.8-8.2,1.4-12.5c-0.5-4.7-1.6-9.5-2.6-14.1
				c-1.1-4.5-1.7-9.4-4.7-13.2c8.8,4.4,17.2,14.8,21,23.8c4.3,10,7.3,21.7-0.3,30.8C202.2,130.5,196.1,133.8,191.8,139.4z"/>
			
				<linearGradient id="SVGID_00000011742882089562852350000015046902650615598011_" gradientUnits="userSpaceOnUse" x1="47.0548" y1="5.2689" x2="223.5879" y2="292.6194">
				<stop  offset="0" style="stop-color:#7269A8"/>
				<stop  offset="0.4267" style="stop-color:#615E86"/>
				<stop  offset="1" style="stop-color:#474D52"/>
			</linearGradient>
			<path style="fill-rule:evenodd;clip-rule:evenodd;fill:url(#SVGID_00000011742882089562852350000015046902650615598011_);" d="
				M134,164.7c22.8,4.1,43.7-7.9,62.7-21.6c2.7-1.9,12.1-9.3,8.2-1.2c-5,10.5-15.5,19.8-24.6,26.5c-23.2,17-54.2,20.9-79.8,7
				c-23.5-12.8-40.3-37.9-58-57.2c-2.7-3-5.5-5.9-8.2-8.9c8.3-7,27.2,2.8,31.8,11.1c-2.1-3.8-6.1-8.2-6.6-12.5
				c6,0.9,9.7,9.8,13.6,13.8c4.9,5,9.9,10,15,14.8c10,9.4,20.8,18.7,33.5,24.3C125.7,162.7,129.9,164,134,164.7z"/>
			
				<linearGradient id="SVGID_00000079481904383794921440000011321048518786039942_" gradientUnits="userSpaceOnUse" x1="48.8719" y1="4.1522" x2="225.4047" y2="291.502">
				<stop  offset="0" style="stop-color:#7269A8"/>
				<stop  offset="0.4267" style="stop-color:#615E86"/>
				<stop  offset="1" style="stop-color:#474D52"/>
			</linearGradient>
			<path style="fill-rule:evenodd;clip-rule:evenodd;fill:url(#SVGID_00000079481904383794921440000011321048518786039942_);" d="
				M127.3,157.2C127.3,157.2,127.3,157.2,127.3,157.2c-8.1-10.2-19.2-25-19.9-38.5c-0.2-4.5,0.7-9.4,3.6-12.9
				c-6.8-13.2,7.6-27.9,17.2-34.7c4.7-3.3,9.6-5.9,14.7-8.3c-11.9-8.4-23.9-14.5-38.7-15.9C89,45.6,65.7,54.4,59.9,70.3
				c-1.8,5-1.2,10.6-3.9,15.3c-1.6,2.9-4,5.4-5.7,8.3c-3.3,5.5-1,4.6,3.4,7.6c2.6,1.8,4.4,2.8,7.5,4.2c6.3,2.8,13.2,7,16,13.7
				c2.6,6.4,5.1,8.3,11.2,11.6c2.9,1.6,5.9,4.6,8,7.1c2,2.4,2.9,5.6,5.1,7.5C107.6,151,119.5,155,127.3,157.2z"/>
			
				<linearGradient id="SVGID_00000154388676484525230920000009069800172553642381_" gradientUnits="userSpaceOnUse" x1="88.3236" y1="-20.0845" x2="264.8568" y2="267.266">
				<stop  offset="0" style="stop-color:#7269A8"/>
				<stop  offset="0.4267" style="stop-color:#615E86"/>
				<stop  offset="1" style="stop-color:#474D52"/>
			</linearGradient>
			<path style="fill-rule:evenodd;clip-rule:evenodd;fill:url(#SVGID_00000154388676484525230920000009069800172553642381_);" d="
				M111.2,186c10,6.4,17.1,17.8,27.8,22.8c11.5,5.4,20.8-9.9,29.4-15.2c12.2-7.6,25.4-11.8,37-20.8c9.5-7.5,22.5-12.9,30.5-22
				c9.2-10.5,12.3-29.3,11.4-42.9c-4.6,4.7-7.8,11.2-12.1,16.3c-2.2,2.6-4.5,5.1-7,7.4c-2.2,2.1-5.9,3.8-7.7,6.2
				c15.8-19.7,31.8-42.4,24.1-69c-6.6-22.7-28.5-39.3-52.4-33c-14.1,3.7-25.9,13.1-37.2,21.8c15.6,1.2,31.2,3.4,43,14.7
				c11.7,11.3,17.8,28,18.4,44c1.3,29.4-19.3,54.4-45.9,64.8c-19,7.4-39.5,6.2-59.5,4.9C111,185.9,111.1,185.9,111.2,186z"/>
			
				<linearGradient id="SVGID_00000139973583842450029940000009366100499539008398_" gradientUnits="userSpaceOnUse" x1="55.4894" y1="8.910719e-02" x2="232.0197" y2="287.435">
				<stop  offset="0" style="stop-color:#7269A8"/>
				<stop  offset="0.4267" style="stop-color:#615E86"/>
				<stop  offset="1" style="stop-color:#474D52"/>
			</linearGradient>
			<path style="fill-rule:evenodd;clip-rule:evenodd;fill:url(#SVGID_00000139973583842450029940000009366100499539008398_);" d="
				M123.1,142.1C123.2,142.1,123.2,142.2,123.1,142.1c-5.5-5.8-10.8-14.3-11.4-22.4c-0.8-10.6,14.2-31.4,25.4-20.1
				c7.4,7.4-3.2,13.6-7.8,18.2c-2.9,2.9-4.7,7.6-5.7,11.5C122.9,131.8,121,139.8,123.1,142.1z"/>
			
				<linearGradient id="SVGID_00000116211612719638606640000004110365940933711293_" gradientUnits="userSpaceOnUse" x1="85.6223" y1="-18.4256" x2="262.1554" y2="268.9247">
				<stop  offset="0" style="stop-color:#7269A8"/>
				<stop  offset="0.4267" style="stop-color:#615E86"/>
				<stop  offset="1" style="stop-color:#474D52"/>
			</linearGradient>
			<path style="fill-rule:evenodd;clip-rule:evenodd;fill:url(#SVGID_00000116211612719638606640000004110365940933711293_);" d="
				M140.7,114.4c6-6.7,11.3-18,2.3-24.6c-9.2-6.7-18.4-1-25.2,5.9c5.9-14,14-27,29.3-31.9c16.3-5.3,32.1,3.1,37.9,19.1
				c3.3,9.3,3,19.4,2.5,29.1c-8.8-0.5-13.2-10.2-22.9-9.6C155.6,103,147,108.3,140.7,114.4z"/>
		</g>
	</g>
</g>
</svg>
