<?xml version="1.0" encoding="utf-8"?>
<!-- Generator: Adobe Illustrator 27.7.0, SVG Export Plug-In . SVG Version: 6.00 Build 0)  -->
<svg version="1.1" id="레이어_1" xmlns="http://www.w3.org/2000/svg" xmlns:xlink="http://www.w3.org/1999/xlink" x="0px"
	 y="0px" viewBox="0 0 60 60" style="enable-background:new 0 0 60 60;" xml:space="preserve">
<style type="text/css">
	.st0{fill:#4E0039;}
	.st1{fill:#FF49FD;}
</style>
<g id="Layer_2_1_">
	<g id="Surfaces">
		<g id="UI_UX_Surface">
			<g id="Outline_no_shadow">
				<path class="st0" d="M14.5,6.6h31c4.7,0,8.5,3.8,8.5,8.5v29.8c0,4.7-3.8,8.5-8.5,8.5h-31c-4.7,0-8.5-3.8-8.5-8.5V15.1
					C6,10.4,9.8,6.6,14.5,6.6z"/>
			</g>
		</g>
	</g>
	<g id="Outlined_Mnemonics_Logos">
		<g id="Xd">
			<path class="st1" d="M31.2,18.9l-6,9.9l6.4,10.5c0,0.1,0.1,0.2,0,0.2c0,0.1-0.1,0-0.2,0h-4.6c-0.3,0-0.5,0-0.7-0.2
				c-0.4-0.8-0.9-1.7-1.3-2.5c-0.4-0.8-0.9-1.7-1.4-2.5c-0.5-0.9-1-1.7-1.4-2.6h0c-0.4,0.9-0.9,1.7-1.3,2.6
				c-0.5,0.9-0.9,1.7-1.4,2.6c-0.5,0.8-0.9,1.7-1.4,2.5c-0.1,0.2-0.2,0.2-0.5,0.2h-4.4c-0.1,0-0.1,0-0.1-0.1c0-0.1,0-0.2,0-0.2
				l6.2-10.2l-6.1-10.3c-0.1-0.1-0.1-0.2,0-0.2c0-0.1,0.1-0.1,0.2-0.1h4.5c0.1,0,0.2,0,0.3,0c0.1,0,0.1,0.1,0.2,0.2
				c0.4,0.9,0.8,1.7,1.3,2.6c0.5,0.9,0.9,1.7,1.4,2.5c0.5,0.8,0.9,1.7,1.3,2.5h0c0.4-0.9,0.9-1.7,1.3-2.6c0.4-0.8,0.9-1.7,1.4-2.5
				c0.5-0.8,0.9-1.7,1.3-2.5c0-0.1,0.1-0.2,0.1-0.2c0.1,0,0.2-0.1,0.3,0h4.2c0.1,0,0.2,0,0.2,0.1C31.3,18.8,31.3,18.9,31.2,18.9
				L31.2,18.9z"/>
			<path class="st1" d="M40.5,40c-1.5,0-3-0.3-4.3-0.9c-1.3-0.6-2.3-1.5-3-2.7c-0.7-1.2-1.1-2.7-1.1-4.6c0-1.5,0.4-2.9,1.1-4.2
				c0.8-1.3,1.9-2.4,3.2-3.1c1.4-0.8,3.1-1.2,5.1-1.2c0.1,0,0.2,0,0.4,0c0.2,0,0.4,0,0.6,0v-6.3c0-0.1,0.1-0.2,0.2-0.2h4.1
				c0.1,0,0.2,0.1,0.2,0.1c0,0,0,0,0,0v19c0,0.4,0,0.8,0,1.2c0,0.4,0.1,0.8,0.1,1.2c0,0.1-0.1,0.3-0.2,0.3c-1,0.4-2.1,0.8-3.3,1
				C42.5,39.9,41.5,40,40.5,40z M42.4,36v-8.8c-0.2,0-0.4-0.1-0.5-0.1c-0.2,0-0.4,0-0.7,0c-0.8,0-1.6,0.2-2.3,0.5
				c-0.7,0.3-1.3,0.8-1.7,1.5c-0.4,0.6-0.7,1.5-0.7,2.5c0,0.7,0.1,1.4,0.3,2.1c0.2,0.5,0.5,1,0.9,1.4c0.4,0.4,0.8,0.6,1.4,0.8
				c0.5,0.2,1.1,0.3,1.7,0.3c0.3,0,0.6,0,0.8,0C42,36.1,42.2,36.1,42.4,36z"/>
		</g>
	</g>
</g>
</svg>
