<?xml version="1.0" encoding="utf-8"?>
<!-- Generator: Adobe Illustrator 27.8.1, SVG Export Plug-In . SVG Version: 6.00 Build 0)  -->
<svg version="1.1" id="레이어_1" xmlns="http://www.w3.org/2000/svg" xmlns:xlink="http://www.w3.org/1999/xlink" x="0px"
	 y="0px" viewBox="0 0 60 60" style="enable-background:new 0 0 60 60;" xml:space="preserve">
<style type="text/css">
	.st0{fill:#001E36;}
	.st1{fill:#31A8FF;}
</style>
<g id="Layer_2_00000005244554647874010990000008678476308652678316_">
	<g id="Surfaces_00000140731004820190376700000001972189136241418138_">
		<g id="Photo_Surface">
			<g id="Outline_no_shadow_00000130620207363638080920000006990906976352178562_">
				<path class="st0" d="M14.5,6.6h31c4.7,0,8.5,3.8,8.5,8.5v29.8c0,4.7-3.8,8.5-8.5,8.5h-31c-4.7,0-8.5-3.8-8.5-8.5V15.1
					C6,10.4,9.8,6.6,14.5,6.6z"/>
			</g>
		</g>
	</g>
	<g id="Outlined_Mnemonics_Logos_00000016057411511014937290000007484553950611195824_">
		<g id="Ps">
			<path class="st1" d="M16.8,39.4V18.8c0-0.1,0.1-0.2,0.2-0.2c0.3,0,0.7,0,1.1,0c0.5,0,1,0,1.5,0c0.5,0,1.1,0,1.7,0
				c0.6,0,1.2,0,1.8,0c1.6,0,3,0.2,4.1,0.6c1,0.3,1.9,0.9,2.7,1.6c0.6,0.6,1.1,1.4,1.5,2.3c0.3,0.8,0.5,1.7,0.5,2.6
				c0,1.7-0.4,3.1-1.2,4.3c-0.8,1.1-1.9,2-3.2,2.4C26.1,32.8,24.6,33,23,33c-0.5,0-0.8,0-1,0c-0.2,0-0.5,0-0.9,0v6.4
				c0,0.1-0.1,0.3-0.2,0.3c0,0,0,0-0.1,0H17C16.9,39.7,16.8,39.6,16.8,39.4z M21.2,22.5v6.7c0.3,0,0.5,0,0.8,0H23
				c0.8,0,1.6-0.1,2.3-0.4c0.6-0.2,1.2-0.6,1.6-1.1c0.4-0.5,0.6-1.2,0.6-2.1c0-0.6-0.1-1.2-0.5-1.8c-0.3-0.5-0.8-0.9-1.4-1.1
				c-0.7-0.3-1.5-0.4-2.4-0.4c-0.5,0-1,0-1.4,0C21.6,22.4,21.3,22.5,21.2,22.5L21.2,22.5z"/>
			<path class="st1" d="M44.4,28c-0.6-0.3-1.2-0.5-1.9-0.7C41.7,27.1,41,27,40.2,27c-0.4,0-0.8,0-1.2,0.1c-0.3,0.1-0.5,0.2-0.6,0.4
				c-0.1,0.2-0.2,0.4-0.2,0.5c0,0.2,0.1,0.4,0.2,0.5c0.2,0.2,0.4,0.4,0.7,0.5c0.5,0.2,0.9,0.5,1.4,0.7c1.1,0.4,2.1,0.9,3.1,1.5
				c0.7,0.4,1.2,1,1.6,1.7c0.3,0.6,0.5,1.3,0.5,2.1c0,0.9-0.3,1.9-0.8,2.7c-0.6,0.8-1.3,1.4-2.2,1.8c-1,0.4-2.2,0.6-3.6,0.6
				c-0.9,0-1.8-0.1-2.7-0.3c-0.7-0.1-1.4-0.3-2-0.6c-0.1-0.1-0.2-0.2-0.2-0.4v-3.5c0-0.1,0-0.1,0.1-0.2c0.1,0,0.1,0,0.2,0
				c0.8,0.5,1.6,0.8,2.5,1c0.8,0.2,1.6,0.3,2.4,0.3c0.8,0,1.3-0.1,1.7-0.3c0.3-0.1,0.5-0.5,0.5-0.8c0-0.3-0.2-0.5-0.5-0.8
				c-0.3-0.3-1-0.6-2-0.9c-1-0.4-2-0.8-2.8-1.4c-0.6-0.4-1.1-1-1.5-1.7c-0.3-0.6-0.5-1.3-0.5-2c0-0.9,0.2-1.7,0.7-2.4
				c0.5-0.8,1.2-1.4,2.1-1.8c0.9-0.5,2.1-0.7,3.5-0.7c0.8,0,1.7,0.1,2.5,0.2c0.6,0.1,1.2,0.2,1.7,0.5c0.1,0,0.2,0.1,0.2,0.2
				c0,0.1,0,0.2,0,0.2v3.3c0,0.1,0,0.2-0.1,0.2C44.6,28,44.5,28,44.4,28z"/>
		</g>
	</g>
</g>
</svg>
