<?xml version="1.0" encoding="utf-8"?>
<!-- Generator: Adobe Illustrator 27.7.0, SVG Export Plug-In . SVG Version: 6.00 Build 0)  -->
<svg version="1.1" id="레이어_1" xmlns="http://www.w3.org/2000/svg" xmlns:xlink="http://www.w3.org/1999/xlink" x="0px"
	 y="0px" viewBox="0 0 24 24" style="enable-background:new 0 0 24 24;" xml:space="preserve">
<style type="text/css">
	.st0{fill:#FFFFFF;}
</style>
<path class="st0" d="M12,7c-2.8,0-5,2.2-5,5s2.2,5,5,5s5-2.2,5-5S14.8,7,12,7L12,7z M11,1v4h2V1H11z M11,19v4h2v-4H11z M23,11h-4v2
	h4V11z M5,11H1v2h4V11z M16.2,17.7l2.5,2.5l1.4-1.4l-2.5-2.5L16.2,17.7z M3.9,5.3l2.5,2.5l1.4-1.4L5.3,3.9L3.9,5.3z M6.3,16.2
	l-2.5,2.5l1.4,1.4l2.5-2.5L6.3,16.2z M18.7,3.9l-2.5,2.5l1.4,1.4l2.5-2.5L18.7,3.9z"/>
</svg>
