<?xml version="1.0" encoding="utf-8"?>
<!-- Generator: Adobe Illustrator 27.8.1, SVG Export Plug-In . SVG Version: 6.00 Build 0)  -->
<svg version="1.1" id="레이어_1" xmlns="http://www.w3.org/2000/svg" xmlns:xlink="http://www.w3.org/1999/xlink" x="0px"
	 y="0px" viewBox="0 0 261 261" style="enable-background:new 0 0 261 261;" xml:space="preserve">
<style type="text/css">
	.st0{fill:#323333;}
</style>
<g>
	<path class="st0" d="M85.5,252.7L85.5,252.7c-38.7,0-70-31.3-70-70v-84h0c38.7,0,70,31.3,70,70V252.7z"/>
	<path class="st0" d="M245.5,252.7L245.5,252.7c-38.7,0-70-31.3-70-70v-84h0c38.7,0,70,31.3,70,70V252.7z"/>
	<path class="st0" d="M95.5,252.7L95.5,252.7l0-174.4c0-38.7,31.3-70,70-70h0v174.4C165.5,221.3,134.1,252.7,95.5,252.7z"/>
</g>
</svg>
